<?xml version="1.0" encoding="utf-8"?>
<!-- Generator: Adobe Illustrator 18.1.1, SVG Export Plug-In . SVG Version: 6.00 Build 0)  -->
<svg version="1.1" id="Layer_1" xmlns="http://www.w3.org/2000/svg" xmlns:xlink="http://www.w3.org/1999/xlink" x="0px" y="0px"
	 viewBox="0 0 150 50" enable-background="new 0 0 150 50" xml:space="preserve">
<g>
	<path d="M94.6,14.8c0.2-0.1,0.4-0.2,0.5-0.2c4.6,0.1,9.2-0.1,13.8,0.4c5.7,0.5,8.4,3.7,8.8,9.5c0.2,2.6,0,5.2-1.4,7.5
		c-1.8,3-4.6,4.2-7.8,4.4c-4,0.2-8.1,0.1-12.1,0.1c-0.1,0-0.3-0.1-0.5-0.3c0.2-0.1,0.5-0.2,0.7-0.3c1.7-0.2,2.1-0.6,2.1-2.3
		c0-5.4,0-10.9,0-16.3c0-1.3-0.4-1.7-1.6-1.9c-0.4-0.1-0.9-0.1-1.3-0.1c-0.4,0-0.8,0-1.2,0C94.6,15,94.6,14.9,94.6,14.8z
		 M102.1,25.5c0,1.4,0,2.7,0,4.1c0,1.4,0,2.8,0,4.2c0,1.6,0.4,2,2.1,2c0.8,0,1.7,0,2.5-0.1c4.4-0.3,6.5-2.1,7.1-6.4
		c0.4-2.8,0.4-5.6-0.1-8.4c-0.6-3.3-2.2-4.9-5.5-5.4c-1.3-0.2-2.6-0.3-3.9-0.3c-1.8,0-2.2,0.4-2.2,2.1
		C102.1,20,102.1,22.7,102.1,25.5z"/>
	<path d="M23,13.2c0.5,2.3,1.1,4.5,1.6,6.8c-0.1,0-0.1,0.1-0.2,0.1c-0.2-0.3-0.3-0.7-0.5-1c-0.9-1.3-1.6-2.6-2.6-3.7
		c-1.8-1.9-4.1-2.2-6.5-1.1c-2.5,1.1-4.2,2.9-5,5.6c-1.2,4.1-1,8.1,1.1,11.8c1.8,3.4,5.1,4.7,8.8,3.5c1.1-0.4,2.1-0.9,3-1.5
		c0.9-0.6,1.7-1.4,2.6-2c-0.2,0.3-0.4,0.7-0.6,1c-3.1,3.8-6.7,5.2-11.8,4.1c-4-0.9-7-4.7-7.6-9.3c-0.4-2.9-0.1-5.7,1.3-8.3
		c1.8-3.6,4.8-5.5,8.8-5.9c1.8-0.2,3.7-0.1,5.4,0.6c0.8,0.3,1.5,0.4,1.7-0.7C22.8,13.2,22.9,13.2,23,13.2z"/>
	<path d="M37,36.3c-1.9,0-3.6,0-5.3,0c2-0.2,1.6-1.6,1.6-2.9c0-1.6,0-3.1,0-4.7c0-1.4-1-2.1-2.2-1.6c-1.3,0.5-2.3,1.1-2.2,2.8
		c0.1,1.3,0,2.7,0,4.1c0,1.5,0.1,1.7,1.5,2.2c-2.1,0-4.1,0-6.2,0c0-0.1,0.1-0.1,0.1-0.1c2.4-0.4,2.6-0.5,2.6-3c0-5.6,0-11.3,0-16.9
		c0-1.9,0-1.9-1.9-1.9c1.2-0.5,2.5-1,3.9-1.5c0,5.1,0,10,0,15.1c0.5-0.4,0.9-0.7,1.2-1c0.9-0.8,1.9-1.2,3.2-0.9
		c1.3,0.3,1.8,0.9,1.8,2.3c0,1.8,0,3.6,0,5.4C35.2,35.6,35.2,35.6,37,36.3z"/>
	<path d="M95.2,36.3c-1.7,0-3.4,0-5.1,0c0.5-0.3,1.1-0.5,1.3-0.9c0.2-0.4,0.1-1,0.1-1.5c0-1.7,0-3.4,0-5.1c0-1.6-0.8-2.1-2.2-1.3
		c-0.6,0.4-1.3,0.8-1.8,1.3c-0.2,0.2-0.4,0.6-0.4,1c0,1.6,0,3.1,0,4.7c0,1.4,0,1.4,1.4,1.5c0.1,0,0.2,0,0.3,0.2c-1.7,0-3.3,0-5.1,0
		c0.5-0.3,1-0.4,1.2-0.8c0.2-0.4,0.1-0.9,0.1-1.4c0-1.7,0-3.3,0-5c0-1.7,0-1.7-1.6-1.8c1.1-0.4,2.2-0.9,3.5-1.4
		c0,0.8,0.1,1.5,0.1,2.3c0.3-0.3,0.5-0.5,0.7-0.6c0.5-0.4,1-0.9,1.6-1.2c2-1.1,3.9,0.1,4,2.3c0,1.7,0,3.5,0,5.2
		C93.5,35.9,93.1,35.7,95.2,36.3z"/>
	<path d="M135.6,31c0,2.9-2.6,5.5-5.4,5.5c-3.2,0-5.7-2.4-5.7-5.4c0-3.2,2.2-5.4,5.4-5.4C133.5,25.7,135.6,27.7,135.6,31z
		 M133.5,31.9c-0.1-1.9-0.5-3.4-1.7-4.6c-1.6-1.7-3.8-1.3-4.7,1c-0.8,2-0.4,4,0.7,5.7c0.7,1.1,1.6,2,3,1.8c1.5-0.2,2.1-1.3,2.5-2.6
		C133.4,32.7,133.5,32.2,133.5,31.9z"/>
	<path d="M79.1,35.2c-0.9,0.4-1.8,0.9-2.8,1.2c-1.9,0.5-3.2-0.6-3-2.3c0.1-0.5,0.4-1.1,0.8-1.4c1.2-0.8,2.5-1.5,3.8-2
		c1.1-0.4,1.5-1,1.3-2.1c-0.1-0.4,0-0.8,0-1.2c-0.1-0.8-0.4-1.4-1.4-1.4c-0.9,0-1.5,0.7-1.6,1.5c0,0.1,0,0.1,0,0.2
		c0.1,0.7,0,1.3-0.7,1.5c-0.3,0.1-1-0.1-1-0.3c-0.1-0.6-0.1-1.2,0.2-1.7c0.8-1.4,2.8-1.9,4.6-1.4c1.3,0.4,2,1.4,2,3.2
		c0,1.8,0,3.7,0,5.5c0,1.3,0.4,1.5,1.6,1.1C81.9,37,80,36.8,79.1,35.2z M79.2,30.8c-1.3,0.4-2.5,0.9-3.1,2c-0.4,0.7-0.4,1.5,0.2,2.1
		c0.3,0.3,1,0.5,1.4,0.5c0.8-0.1,1.5-0.6,1.5-1.5C79.2,32.9,79.2,31.9,79.2,30.8z"/>
	<path d="M52.4,32.5c0.2,0.7,0.5,1.4,0.8,2c0.5,1.2,2.1,1.8,3.3,1.4c1.4-0.5,1.8-2.3,0.6-3.3c-0.7-0.5-1.5-0.9-2.2-1.3
		c-1.5-0.9-2-2-1.6-3.5c0.4-1.3,1.5-2.1,3.1-2.1c0.9,0,1.7,0.2,2.7,0.3c0.1,1,0.2,2,0.3,3c-0.1,0-0.1,0-0.2,0
		c-0.2-0.6-0.4-1.2-0.7-1.8c-0.5-1-1.3-1.4-2.4-1.1c-1.5,0.4-1.9,1.8-0.7,2.9c0.6,0.5,1.3,0.9,1.9,1.3c0.5,0.4,1.1,0.7,1.5,1.2
		c1.6,1.6,1,4-1.1,4.6c-1,0.3-2.1,0.4-3.1,0.3c-1.9-0.2-2.1-0.5-2.3-2.4c0-0.5-0.1-1-0.1-1.5C52.3,32.5,52.3,32.5,52.4,32.5z"/>
	<path d="M142.5,36.3c-2,0-4,0-6.1,0c0.1-0.1,0.1-0.2,0.1-0.2c1.7-0.4,1.7-0.4,1.7-2.1c0-1.8,0-3.6,0-5.4c0-0.4,0-0.7-0.1-1.2
		c-0.7,0.1-1.3,0.3-1.9,0.4c0-0.1,0-0.1-0.1-0.2c1.3-0.5,2.6-1.1,4.1-1.6c0,0.9,0.1,1.8,0.1,2.7c0.8-0.8,1.4-1.5,2.1-2.1
		c0.4-0.3,1-0.5,1.5-0.4c0.6,0.1,0.8,0.8,0.6,1.4c-0.3,0.7-0.8,0.9-1.5,0.7c-0.5-0.2-0.9-0.9-1.4-0.3c-0.5,0.6-1.2,1.3-1.3,2
		c-0.2,1.7-0.1,3.5-0.1,5.2c0,0.9,0.8,0.8,1.4,0.8c0.3,0,0.5,0.1,0.8,0.1C142.5,36.2,142.5,36.2,142.5,36.3z"/>
	<path d="M37.7,36.1c0.4-0.1,0.8-0.1,1.1-0.2c0.3-0.2,0.7-0.5,0.7-0.7c0.1-2.5,0-5.1,0-7.8c-0.7,0.1-1.4,0.3-2,0.4
		c0-0.1-0.1-0.1-0.1-0.2c1.3-0.5,2.6-1,4.1-1.6c0,1,0,1.8,0,2.6c0.1,0,0.2,0.1,0.2,0.1c0.5-0.5,0.9-1,1.4-1.5
		c0.2-0.2,0.5-0.5,0.8-0.7c0.6-0.4,1.3-0.6,1.7,0.1c0.2,0.4,0.2,1.1,0,1.4c-0.4,0.6-1.1,0.6-1.6,0.1c-0.5-0.5-1-0.3-1.3,0.1
		c-0.5,0.8-1,1.6-1.1,2.5c-0.2,1.2-0.1,2.4,0,3.7c0,1.4,0.2,1.6,1.6,1.7c0.2,0,0.5,0,0.7,0.2c-2,0-4.1,0-6.1,0
		C37.7,36.2,37.7,36.2,37.7,36.1z"/>
	<path d="M60.4,26.4c0.4-0.1,0.8-0.2,1.1-0.3c0.2-0.1,0.6-0.4,0.5-0.6c-0.3-1.5,0.9-2,1.9-2.9c0,1.2,0,2.2,0,3.3
		c1.1,0,2.1,0.1,3,0.1c0,0.1,0,0.2,0,0.4c-1,0-1.9,0-3,0c0,1.4,0,2.7,0,3.9c0,1.3,0,2.6,0,3.9c0,1.4,0.5,1.7,1.8,1.3
		c0.4-0.1,0.7-0.3,1.3-0.5c-1.2,1.1-2.4,1.5-3.7,1.4c-1-0.1-1.3-1-1.3-1.9c0-2,0-4.1,0-6.1C62,26.8,62,26.8,60.4,26.4z"/>
	<path d="M46.6,27.1c1-0.4,2.1-0.8,3.3-1.3c0,0.9,0,1.7,0,2.5c0,1.9,0,3.7,0,5.6c0,1.7,0.1,1.7,1.6,2.3c-1.9,0-3.8,0-5.7,0
		c0-0.1,0-0.2,0.1-0.2c2.1-0.4,2.1-0.4,2.1-2.6c0-1.6,0-3.2,0-4.8C47.9,27.8,47.8,27.1,46.6,27.1z"/>
	<path d="M70.9,25.9c0,1.5,0,2.7,0,4c0,1.3,0,2.6,0,4c0,1.6,0.1,1.8,1.9,2.4c-2.2,0-4.1,0-6,0c0-0.1,0-0.2,0.1-0.2
		c2.1-0.4,2.1-0.4,2.1-2.6c0-1.6,0-3.3,0-4.9c0-0.9-0.2-1.5-1.3-1.4C68.7,26.8,69.7,26.3,70.9,25.9z"/>
	<path d="M118.4,27.3c1.3-0.5,2.3-0.9,3.5-1.4c0,0.8,0,1.4,0,2c0,2,0,4.1,0,6.1c0,1.6,0.1,1.8,1.6,2.3c-1.9,0-3.9,0-5.8,0
		c0,0,0-0.1,0-0.1c0.2,0,0.5-0.1,0.7-0.1c1.3-0.2,1.6-0.5,1.6-1.9c0-1.8,0-3.6,0-5.4C120,27.4,120,27.4,118.4,27.3z"/>
	<path d="M69.9,22.9c-0.7-0.1-1.1-0.4-1.1-1.2c0-0.7,0.5-1.1,1.2-1.1c0.6,0,1.1,0.4,1,1.1C71.1,22.5,70.7,22.9,69.9,22.9z"/>
	<path d="M49,22.9c-0.8,0-1.2-0.4-1.2-1.1c0-0.8,0.5-1.2,1.1-1.1c0.4,0.1,1,0.6,1.1,1.1C50.2,22.4,49.7,22.9,49,22.9z"/>
	<path d="M120.9,22.9c-0.7-0.1-1.1-0.4-1.1-1.2c0-0.7,0.5-1.1,1.2-1.1c0.6,0,1.1,0.4,1.1,1.1C122.1,22.5,121.7,22.9,120.9,22.9z"/>
</g>
</svg>
