<?xml version="1.0" encoding="utf-8"?>
<!-- Generator: Adobe Illustrator 18.1.1, SVG Export Plug-In . SVG Version: 6.00 Build 0)  -->
<svg version="1.1" id="Layer_1" xmlns="http://www.w3.org/2000/svg" xmlns:xlink="http://www.w3.org/1999/xlink" x="0px" y="0px"
	 viewBox="0 0 150 50" enable-background="new 0 0 150 50" xml:space="preserve">
<g>
	<path d="M94.9,24.8c0.5-0.6,0.9-1.3,1.4-1.9c1.2,2.8,2.3,5.5,3.5,8.2c0.7,1.6,1.4,3.2,2.1,4.8c0.2,0.4,0.5,0.8,0.8,1.2
		c-0.9,0-2,0-3.1,0c0.7-0.5,0.4-1,0.1-1.6c-0.4-0.9-0.9-1.9-1.3-2.9c-0.1-0.3-0.3-0.4-0.6-0.4c-1.2,0-2.5,0-3.7,0
		c-0.2,0-0.4,0.2-0.5,0.3c-0.6,1.2-1.1,2.3-1.7,3.5c-0.2,0.4-0.3,0.7,0.3,1c-3.1,0-6,0-9.1,0c0.6-0.6,0.7-1.3,0.7-2
		c0-3.4,0-6.9,0-10.3c0-0.7-0.1-1.3-0.6-1.9c1.1,0,2.1,0,3.2,0c-0.5,0.5-0.7,1.1-0.7,1.8c0,3.8,0,7.5,0,11.3c0,0.1,0,0.3,0,0.5
		c1.5,0.2,2.9,0.2,4.3-0.3c0.3-0.1,0.6-0.4,0.8-0.7c1.5-3.2,2.9-6.4,4.3-9.6c0.1-0.3,0-0.7-0.1-1C95,24.8,94.9,24.8,94.9,24.8z
		 M96,27.1c-0.7,1.4-1.3,2.7-1.9,4.1c1.3,0,2.4,0,3.6,0c0-0.1,0-0.1,0-0.2C97.1,29.8,96.6,28.5,96,27.1z"/>
	<path d="M46.3,25.5c-0.3-0.6-0.4-1-0.6-1.4c-1.2-2.3-3.1-3.8-5.7-4.1c-1.7-0.2-3.4,0.3-4.7,1.4c-2.6,2.1-3.6,4.8-3.2,8.1
		c0.3,2.7,1.6,4.9,4,6.2c2.4,1.4,5.4,1,7.5-0.8c1.4-1.2,2.3-2.7,2.7-4.3c-2.1-0.1-4.1-0.2-6.2-0.4c0-0.2,0-0.4,0-0.6
		c2.8-0.1,5.7-0.1,8.5-0.2c-0.4,3.6-3.2,6.7-6.8,7.6c-3.5,0.9-6.7,0.1-9.3-2.4c-1.5-1.5-2.4-3.3-2.6-5.4c-0.5-5,3.2-9,7.5-9.7
		c3.4-0.6,6.3,0.2,8.8,2.6c0.1,0.1,0.3,0.3,0.3,0.5c0,0.9,0,1.7,0,2.6C46.5,25.2,46.4,25.2,46.3,25.5z"/>
	<path d="M59.6,35.7c-1.4,1.2-3,1.5-4.7,1.6c-2.6,0.1-4.7-1.7-5.2-4.2c-0.1-0.4-0.1-0.8-0.1-1.2c0-2.2,0-4.4,0-6.6
		c0-0.9,0-1.7-0.8-2.4c1.3,0,2.5,0,3.8,0c-1,0.8-0.7,1.9-0.7,2.9c0,2.1,0,4.2,0,6.3c0,1,0.3,2,0.9,2.8c0.6,0.8,1.4,1.2,2.4,1.3
		c1.1,0.1,2.2-0.1,3.2-0.7c0.8-0.4,1.3-1.1,1.3-2.1c0-2.9,0-5.8,0-8.7c0-0.6-0.2-1.2-0.4-1.9c0.9,0,1.9,0,3,0
		c-0.7,1.2-0.4,2.5-0.4,3.7c0,3,0,6,0,9.1c0,0.5,0.2,0.9,0.3,1.4c-0.7,0-1.6,0-2.4,0C59.6,36.6,59.6,36.2,59.6,35.7z"/>
	<path d="M106.7,22.9c1.1,0,2.1,0,3,0c0,0.2,0,0.5,0.1,0.6c2.9,3.2,5.9,6.4,8.8,9.6c0.1,0.1,0.3,0.3,0.5,0.5c0-0.2,0-0.3,0-0.4
		c0-3.1,0-6.2,0-9.3c0-0.3-0.1-0.6-0.2-0.9c0.5,0,1.1,0,1.6,0c-0.1,0.4-0.2,0.8-0.2,1.2c0,4.4,0,8.7,0,13.1c0,0.2,0,0.4,0,0.7
		c-3.9-4.2-7.7-8.2-11.6-12.3c0,0.2-0.1,0.3-0.1,0.4c0,3.4,0,6.7,0,10.1c0,0.3,0.2,0.6,0.2,0.9c-0.6,0-1.2,0-1.7,0
		c0.1-0.4,0.2-0.7,0.2-1.1c0-3.7,0-7.5,0-11.2C107.3,24,107.2,23.4,106.7,22.9z"/>
	<path d="M78.9,14.3c-0.8,0-1.7,0.3-2.4,0.1c-0.9-0.3-1.7-0.3-2.6,0c-0.7,0.2-1.5,0-2.4,0c-0.2,1.1-0.5,2.3,0.4,3.5
		c0.6,0.8,1.7,0.8,2.4,0.1c-0.1-0.1-0.3-0.1-0.4-0.2c-0.3-0.2-0.5-0.5-0.3-0.9c0.2-0.4,0.5-0.5,0.9-0.4c0.4,0.1,0.5,0.4,0.5,0.9
		c-0.2,1.4-1.4,1.5-2.5,1.3c-1.2-0.2-1.8-1.2-2-2.3c-0.2-0.9-0.1-1.8-0.2-2.6c0-0.2-0.1-0.5-0.2-0.7c-0.4-0.7-0.8-1.3-1.2-1.9
		c0,0,0-0.1,0-0.2c0-0.4,0-0.9,0.4-1.1c0.4-0.2,0.8,0,1.1,0.2c0.7,0.6,0.9,1.4,1.1,2.2c0,0.2,0.1,0.3,0.1,0.5c0,0.3,0,0.8,0.2,0.9
		c0.4,0.2,0.9,0.3,1.4,0.4c0.6,0.1,1.1-0.2,1.4-0.5c-0.4-0.9-0.9-1.7-1.2-2.5c-0.5-1.7,0-3.2,0.8-4.6c0.4-0.8,0.4-0.7-0.1-1.5
		c-0.6-0.7-1.2-1.3-2.1-1.6c-1-0.4-1.8,0-2.1,1c-0.5,1.3,0.2,2.9,1.4,3.5c0.4,0.2,0.8,0.3,1.2,0c0.4-0.3,0.4-0.8,0.2-1.2
		c-0.1-0.3-0.2-0.6-0.4-0.9C72,5.4,71.8,5.2,71.6,5c1,0.1,1.9,1.7,1.2,2.8c-0.3,0.5-1,0.6-1.7,0.4c-1.1-0.4-1.9-1.5-1.9-2.7
		c0-0.4,0-0.7,0-1.1c0.3-1.5,1.5-2,3.1-1.6c1.2,0.3,2,1.1,2.8,2c0.6-0.5,1.1-1,1.7-1.4c0.8-0.6,1.8-0.9,2.8-0.6
		C80.5,3,81,3.4,81.1,4.1c0.3,1.5-0.1,3.2-1.5,3.9c-0.2,0.1-0.4,0.2-0.6,0.2c-0.5,0.1-1.1,0.1-1.4-0.4c-0.3-0.5-0.3-1.5,0.1-2
		c0.3-0.4,0.8-0.7,1.2-1c-0.5,0.6-1.1,1.2-1.2,2c-0.1,0.9,0.4,1.3,1.3,1c1.5-0.5,2.2-2.6,1.5-3.9c-0.4-0.7-1.1-1-1.9-0.7
		c-1.1,0.4-1.9,1.3-2.6,2.2c-0.1,0.1,0,0.3,0.1,0.4c0.6,1,1.1,2.1,1.2,3.3c0.1,1.6-0.4,3-1.5,4.1c0.7,0.8,2.1,0.9,3,0.3
		c0.1-0.1,0.2-0.3,0.2-0.5c0-1,0.2-1.9,0.8-2.7c0.2-0.3,0.5-0.5,0.9-0.7c0.6-0.3,1,0.1,1.1,0.7c0.1,1-0.5,1.7-1.1,2.3
		c-0.2,0.3-0.4,0.5-0.3,0.9c0.1,1,0.1,2.1-0.3,3.1c-0.6,1.8-2.1,2.1-3.4,1.7c-0.6-0.2-1-0.7-1-1.4c0-0.4,0.2-0.7,0.5-0.7
		c0.4-0.1,0.7,0.1,0.8,0.5c0.1,0.4,0,0.7-0.4,0.9c-0.1,0-0.2,0.1-0.2,0.1c0.3,0.8,1.5,0.7,2.1,0.1c0.7-0.7,0.8-1.6,0.7-2.6
		C79.1,15,79,14.6,78.9,14.3z M75.2,6.8c-1,1.6-0.9,5.1,0,5.9C76.1,11.2,76.1,8.7,75.2,6.8z M80.1,12.8c0.7-0.7,1.1-1.5,1.2-2.4
		c0-0.2-0.1-0.4-0.3-0.5c-0.1-0.1-0.4,0-0.4,0.1C80.1,10.9,80,11.8,80.1,12.8z M70.4,12.8c0-0.4,0-0.6,0-0.8
		c-0.1-0.6-0.2-1.2-0.4-1.7c0-0.1-0.3-0.2-0.5-0.3c-0.1,0.2-0.2,0.3-0.2,0.5C69.2,11.4,69.7,12.1,70.4,12.8z"/>
	<path d="M71,22.9c1.6,0,3.3-0.1,5.1,0c1.5,0.1,2.8,1.4,3.1,3c0.4,1.9-0.3,3.3-1.8,4.4c-0.1,0.1-0.2,0.2-0.3,0.3c0,0,0,0.1-0.1,0.1
		c1.3,2.7,3.2,4.7,6,6.3c-0.8,0.1-1.4,0.1-2-0.2c-1.6-0.5-3-1.5-4-2.8c-0.7-0.8-1.3-1.6-1.9-2.5c-0.3-0.4-0.6-0.6-1-0.5
		c-0.2,0-0.4,0-0.7,0c0,0.3,0,0.5,0,0.7c0,1.1-0.1,2.3-0.1,3.4c0,0.7,0,1.4,0.8,1.8c-1,0-1.9,0-2.9,0c0.6-0.8,0.6-1.7,0.5-2.6
		c0-0.1,0-0.1,0-0.2c0-2.8,0-5.6,0-8.5c0-0.6,0-1.1,0-1.7C71.4,23.6,71.1,23.3,71,22.9z M73.2,30c0.6-0.1,1.2-0.1,1.8-0.2
		c1.5-0.3,2.5-1.8,2.3-3.3c-0.3-2-1.6-3-3.7-2.8c-0.1,0-0.4,0.2-0.4,0.3C73.1,26.1,73.2,28,73.2,30z"/>
	<path d="M65.5,29.9c1.4-0.2,2.8,0.3,4.1-0.4c0,0.6,0,1.1,0,1.7c-0.9-0.4-2-0.5-4.1-0.3c0,1.8,0,3.5,0,5.3c1.5-0.1,3.1,0.2,4.7-0.2
		c-0.1,0.3-0.2,0.6-0.3,0.9c0,0.1-0.2,0.2-0.3,0.2c-2.2,0-4.4,0-6.7,0c0.8-0.7,0.7-1.6,0.7-2.4c0-0.4-0.1-0.8-0.1-1.2
		c0-2.5,0-5,0-7.4c0-0.6,0-1.3,0-1.9c0-0.4-0.2-0.8-0.4-1.2c2.1,0,4.3,0,6.6,0c0,0.5,0,1,0,1.3c-0.4-0.1-0.8-0.3-1.2-0.4
		c-1-0.1-2,0-3,0C65.5,25.9,65.5,27.9,65.5,29.9z"/>
	<path d="M106.2,37.1c-1.1,0-2.1,0-3.2,0c0.6-0.5,0.7-1.2,0.7-1.8c0-3.4,0-6.8,0-10.2c0-0.8,0-1.5-0.6-2.1c1,0,2,0,2.9,0
		c-0.1,0.7-0.3,1.4-0.3,2.1c0,3.3,0,6.6,0,9.9C105.6,35.7,105.7,36.4,106.2,37.1z"/>
	<path d="M79.8,47.9c-1.4,0-2.2-0.8-3-1.7c-0.3-0.3-0.5-0.6-0.7-0.9c-0.1-0.1-0.3-0.2-0.5-0.2c-0.1,0-0.2,0.3-0.2,0.4
		c0,0.5,0,1,0,1.6c0,0.3,0.1,0.5,0.2,0.8c-0.3,0-0.7,0-1,0c0-2.1,0-4.3,0-6.4c0.7,0,1.5-0.1,2.3,0c0.7,0.1,1.1,0.6,1.3,1.2
		c0.2,0.7,0.1,1.5-0.6,2c-0.4,0.3-0.4,0.5-0.2,0.9C77.9,46.5,78.7,47.2,79.8,47.9z M75.3,44.7c0.2,0,0.4,0,0.6,0
		c0.8,0,1.4-0.6,1.3-1.5c0-0.8-0.7-1.5-1.5-1.4c-0.1,0-0.4,0.2-0.4,0.3C75.3,42.9,75.3,43.8,75.3,44.7z"/>
	<path d="M65.9,47.9c-0.4,0-0.8,0-1.1,0c0.2-2.1,0.2-4.3,0-6.5c0.9,0,1.8,0,2.7,0.2c1.1,0.2,1.6,1.3,1.2,2.5c-0.2,0.9-1.2,1.4-2.2,1
		c0.2-0.1,0.4-0.2,0.6-0.3c0.6-0.4,0.9-1.2,0.7-1.9c-0.2-0.6-0.8-1-1.5-1.1c-0.4,0-0.5,0.1-0.5,0.5c0,1.7,0,3.3,0,5
		C65.8,47.5,65.9,47.7,65.9,47.9z"/>
	<path d="M73.7,47.9c-0.4,0-0.7,0-1,0c-0.2-0.4-0.3-0.8-0.4-1.2c-0.2-0.8-0.7-1-1.6-1c-0.7,0-1.1,0.2-1.3,0.9
		c-0.1,0.5-0.3,0.9-0.5,1.4c-0.2,0-0.6,0-0.9,0c0.3-0.7,0.7-1.3,1.1-2c0.4-0.9,0.8-1.8,1.2-2.7c0.1-0.3,0-0.6,0.1-0.8
		c0.1-0.3,0.3-0.6,0.6-0.9C71.9,43.6,72.8,45.7,73.7,47.9z M71.7,45.2c-0.3-0.6-0.5-1.2-0.8-1.9c-0.3,0.7-0.6,1.3-0.9,1.9
		C70.6,45.2,71.1,45.2,71.7,45.2z"/>
	<path d="M82.2,47.6c0-0.3,0-0.6,0-0.9c0.4,0.2,0.8,0.5,1.2,0.7c0.4,0.2,0.8,0.1,1.1-0.3c0.3-0.4,0.2-0.9-0.1-1.2
		c-0.4-0.5-1-1-1.4-1.5c-0.3-0.3-0.6-0.8-0.6-1.2c-0.3-1.4,0.8-1.9,2-1.7c0.2,0,0.5,0.1,0.8,0.1c0,0.2,0,0.4,0,0.6
		c-0.3-0.1-0.6-0.3-1-0.3c-0.8,0-1.2,0.7-0.8,1.3c0.3,0.4,0.7,0.8,1,1.2c0.3,0.3,0.5,0.6,0.8,0.9c0.5,0.7,0.6,1.6,0.2,2.1
		c-0.4,0.5-1.4,0.7-2.2,0.5C82.9,47.7,82.6,47.7,82.2,47.6z"/>
	<path d="M81.3,47.9c-0.4,0-0.8,0-1.1,0c0.2-2.1,0.2-4.3,0-6.4c0.3,0,0.7,0,1.1,0C81.3,43.6,81.3,45.7,81.3,47.9z"/>
</g>
</svg>
