<?xml version="1.0" encoding="utf-8"?>
<!-- Generator: Adobe Illustrator 18.1.1, SVG Export Plug-In . SVG Version: 6.00 Build 0)  -->
<svg version="1.1" id="Layer_1" xmlns="http://www.w3.org/2000/svg" xmlns:xlink="http://www.w3.org/1999/xlink" x="0px" y="0px"
	 viewBox="0 0 150 50" enable-background="new 0 0 150 50" xml:space="preserve">
<g>
	<path d="M48.2,37.6c-0.8-0.3-1-0.8-0.9-1.6c0-3.3,0-6.6,0-9.8c0-0.2,0-0.3,0-0.5c-0.7,0.3-1.5,0.6-2.2,0.9c-1.5,0.6-3,1.3-4.5,1.9
		c-1.3,0.6-2.6,1.1-3.9,1.7c-1.5,0.6-2.9,1.2-4.4,1.8c-0.9,0.4-1.8,0.8-2.7,1.2c-1.2,0.5-2.4,0.5-3.7,0c-0.6-0.3-1.3-0.5-2-0.8
		c0.8-0.3,1.5-0.7,2.2-1c1.3-0.6,2.7-1.1,4-1.7c1.4-0.6,2.8-1.2,4.2-1.8c1.3-0.5,2.6-1.1,3.9-1.6c2.5-1.1,5-2.1,7.5-3.2
		c0.7-0.3,1.5-0.6,2.2-0.5c0.7,0.1,1.4,0.2,1.9,0.8c0.2,0.2,0.3,0.4,0.3,0.7c0,3.1,0,6.3,0,9.4c0,0.1,0,0.3,0,0.5
		c0.1,0,0.2,0,0.3-0.1c1.4-0.7,2.7-1.3,4.1-2c1.7-0.9,3.5-1.7,5.2-2.6c1.8-0.9,3.5-1.7,5.3-2.5c1.7-0.8,3.5-1.7,5.2-2.5
		c1-0.5,2-1,3-1.4c1.1-0.5,2.3-0.5,3.4,0c1.7,0.8,3.4,1.7,5.2,2.5c1.7,0.8,3.4,1.7,5.2,2.5c1.7,0.8,3.4,1.7,5.1,2.5
		c1.7,0.8,3.4,1.7,5.2,2.5c0.6,0.3,1.1,0.5,1.8,0.8c-0.5-0.7-0.9-1.4-1-2.2c-0.4-1.6,0-3.1,0.8-4.4c0.9-1.4,2.3-2.4,3.8-3.1
		c1.2-0.6,2.5-0.9,3.9-1.1c0.4-0.1,0.8-0.1,1.2-0.1c11.7,0,23.4,0,35.1,0c0.5,0,1.1,0.1,1.5,0.5c0.9,0.8,0.6,1.8-0.5,2.3
		c-0.3,0.1-0.6,0.2-1,0.2c-11.7,0-23.4,0-35,0c-2,0-3.8,0.6-5.4,1.8c-0.8,0.7-1.4,1.5-1.4,2.7c0,0.7,0.3,1.3,0.7,1.8
		c1.1,1.3,2.5,1.9,4.1,2.3c1.2,0.3,2.5,0.3,3.7,0.3c11.2,0,22.3,0,33.5,0c0.7,0,1.2,0.3,1.5,0.8c0.5,0.8,0.1,1.5-0.8,1.9
		c-0.3,0.1-0.6,0.2-0.9,0.2c-11.9,0-23.8,0-35.6,0c-1.5,0-3-0.4-4.4-1c-0.1,0-0.1-0.1-0.3-0.1c0.2,0.8-0.4,1-0.9,1.2
		c-0.4,0-0.8,0-1.2,0c-1.2-0.5-2.3-1.1-3.5-1.6c-1.4-0.7-2.9-1.4-4.3-2.1c-0.3-0.1-0.6-0.2-0.8-0.2c-10.7,0-21.4,0-32.1,0
		c-0.1,0-0.3,0-0.4,0c0-0.1,0.1-0.1,0.2-0.2c1.8-0.9,3.5-1.7,5.3-2.5c0.2-0.1,0.4-0.2,0.7-0.2c6.8,0,13.6,0,20.4,0
		c0.1,0,0.3,0,0.4,0c-0.7-0.4-1.4-0.8-2.1-1.1c-1.8-0.8-3.5-1.7-5.3-2.6c-1.2-0.6-2.4-1.2-3.6-1.8c-0.1-0.1-0.3-0.1-0.4,0
		c-1.4,0.7-2.8,1.4-4.3,2.1c-1.7,0.8-3.4,1.6-5,2.4c-1.8,0.9-3.7,1.8-5.5,2.7c-1.6,0.8-3.3,1.6-4.9,2.4c-1.9,0.9-3.7,1.8-5.6,2.7
		C49,37.6,48.6,37.6,48.2,37.6z"/>
	<path d="M6.1,37.6c-0.1-0.1-0.2-0.1-0.3-0.2c-0.4-0.2-0.6-0.5-0.5-0.9c0-4.1,0-8.1,0-12.2c0-0.6,0.3-1.1,0.8-1.3
		c1.1-0.5,2.1-0.5,3.2-0.1c2.5,1,4.9,2.1,7.4,3.2c2.3,1,4.5,1.9,6.8,2.9c1.2,0.5,2.3,1,3.6,1.5c-0.5,0.2-0.9,0.4-1.3,0.5
		c-0.7,0.3-1.5,0.6-2.2,0.9c-0.5,0.2-0.8,0-1.2-0.2c-2.4-1-4.9-2.1-7.3-3.1c-2.2-0.9-4.3-1.9-6.5-2.8c-0.1-0.1-0.3-0.1-0.4-0.2
		c0,0.2,0,0.3,0,0.5c0,3.3,0,6.7,0,10c0,0.7-0.2,1.2-0.9,1.4C6.9,37.6,6.5,37.6,6.1,37.6z"/>
	<path d="M6.1,13.8c0,0.6,0,1.3,0,1.9c0,0.6,0,1.2,0,1.9c-0.3,0-0.5,0-0.8,0c0-1.7,0-3.4,0-5.1c0.4,0,0.7,0,1.1,0
		c0.2,0.9,0.4,1.8,0.6,2.8c0,0,0.1,0,0.1,0c0.2-0.9,0.4-1.8,0.6-2.8c0.4,0,0.7,0,1.1,0c0,1.7,0,3.4,0,5.1c-0.2,0-0.5,0-0.7,0
		c0-1.3,0-2.5,0-3.8c0,0,0,0-0.1,0c-0.2,1.3-0.5,2.5-0.7,3.8c-0.1,0-0.3,0-0.4,0C6.6,16.3,6.4,15,6.1,13.8
		C6.1,13.8,6.1,13.8,6.1,13.8z"/>
	<path d="M94.1,29.3c-0.7-0.1-1.4-0.2-2-0.5c-0.4-0.2-0.6-0.5-0.6-0.9c0-0.4,0.3-0.7,0.6-0.9c0.8-0.4,1.6-0.6,2.5-0.4
		c0.4,0.1,0.9,0.2,1.3,0.3c0.4,0.2,0.7,0.4,0.7,0.9c0,0.5-0.4,0.8-0.8,1C95.3,29.1,94.7,29.2,94.1,29.3z"/>
	<path d="M56.1,29.3c-1,0-1.7-0.1-2.4-0.6c-0.6-0.4-0.7-1.1,0-1.5c0.8-0.5,1.7-0.7,2.7-0.5c0.4,0.1,0.9,0.2,1.3,0.3
		c0.2,0.1,0.4,0.3,0.6,0.5c0.3,0.3,0.1,0.8-0.2,1.1C57.6,29,56.8,29.3,56.1,29.3z"/>
	<path d="M134,12.4c0.5,0,1.1,0,1.6,0c0.5,0,0.9,0.4,1,1c0.1,0.5-0.1,1.2-0.6,1.5c0.8,0.6,0.8,1.7,0.3,2.3c-0.2,0.2-0.5,0.3-0.8,0.4
		c-0.5,0.1-1,0-1.5,0C134,15.9,134,14.2,134,12.4z M134.8,15.3c0,0.6,0,1.1,0,1.6c0.8,0,1-0.1,1-0.9
		C135.8,15.4,135.6,15.2,134.8,15.3z M134.8,14.5c0.6,0.1,1-0.2,0.9-0.7c0-0.5-0.3-0.7-0.9-0.6C134.8,13.6,134.8,14.1,134.8,14.5z"
		/>
	<path d="M76.9,17.6c-0.3,0-0.6,0-0.9,0c-0.2-0.6-0.3-1.1-0.5-1.7c-0.1-0.4-0.1-0.4-0.6-0.4c0,0.7,0,1.4,0,2.1c-0.3,0-0.6,0-0.9,0
		c0-1.7,0-3.4,0-5.1c0.7,0,1.4-0.1,2.1,0.2c0.4,0.2,0.6,0.6,0.6,1c0.1,0.6,0,1.2-0.5,1.6c-0.1,0.1-0.1,0.2,0,0.3
		C76.5,16.2,76.7,16.9,76.9,17.6z M74.9,13.2c0,0.6,0,1.1,0,1.6c0.3,0,0.7,0.1,0.9-0.2c0.1-0.3,0.1-0.7,0-1.1
		C75.7,13.1,75.3,13.1,74.9,13.2z"/>
	<path d="M119.9,12.4c0.5,0,1,0,1.4,0c0.8,0.1,1.1,0.5,1.2,1.3c0.1,0.8,0.1,1.7,0,2.5c0,0.8-0.4,1.3-1.4,1.3c-0.4,0-0.8,0-1.2,0
		C119.9,15.9,119.9,14.2,119.9,12.4z M120.8,13.2c0,1.2,0,2.5,0,3.7c0.8,0.1,0.9-0.1,0.9-0.8c0-0.7,0-1.4,0-2.1
		C121.7,13.2,121.5,13.1,120.8,13.2z"/>
	<path d="M104.2,17.6c0-1.7,0-3.4,0-5.2c0.6,0,1.3,0,1.9,0.2c0.5,0.1,0.7,0.7,0.7,1.2c0,0.8,0.1,1.7,0,2.5c-0.1,0.8-0.4,1.3-1.4,1.3
		C105,17.6,104.6,17.6,104.2,17.6z M105,13.2c0,1.2,0,2.5,0,3.7c0.8,0.1,0.9,0,0.9-0.8c0-0.7,0-1.4,0-2.1
		C106,13.2,105.8,13.1,105,13.2z"/>
	<path d="M84.8,15c0,0.6-0.1,1.1-0.1,1.7c-0.1,0.8-1,1-1.5,0.9c-0.8-0.2-1-0.7-1.1-1.3c0-0.9,0-1.7,0-2.6c0-0.6,0.3-1.1,0.7-1.2
		c0.7-0.2,1.3-0.1,1.7,0.4c0.1,0.2,0.2,0.5,0.2,0.8C84.7,14.1,84.7,14.6,84.8,15C84.7,15,84.7,15,84.8,15z M83.9,15
		c0-0.4,0-0.9,0-1.3c0-0.4-0.2-0.6-0.5-0.5c-0.3,0-0.5,0.2-0.5,0.5c0,0.9,0,1.8,0,2.7c0,0.3,0.1,0.5,0.5,0.5c0.3,0,0.5-0.2,0.5-0.5
		C83.9,15.9,83.9,15.4,83.9,15z"/>
	<path d="M45.7,12.5c0.3,0,0.5,0,0.9,0c0,0.3,0,0.5,0,0.8c0,1,0,2,0,3c0,0.6-0.3,1.1-0.7,1.3c-0.6,0.2-1.3,0.2-1.6-0.4
		C44.1,17,44,16.7,44,16.4c0-1.3,0-2.6,0-3.8c0,0,0-0.1,0-0.1c0.3,0,0.5,0,0.8,0c0,0.1,0,0.2,0,0.4c0,1.1,0,2.2,0,3.3
		c0,0.6,0.1,0.8,0.5,0.8c0.3,0,0.5-0.2,0.5-0.8C45.7,14.9,45.7,13.7,45.7,12.5z"/>
	<path d="M24.5,17.6c-0.3,0-0.6,0-0.9,0c-0.2-0.8-0.5-1.5-0.7-2.4c-0.6,0.7-0.2,1.6-0.4,2.3c-0.2,0-0.5,0-0.8,0c0-1.7,0-3.4,0-5.1
		c0.3,0,0.5,0,0.8,0c0,0.6,0,1.2,0,1.8c0,0,0,0,0.1,0c0.2-0.4,0.4-0.8,0.6-1.2c0.3-0.7,0.3-0.7,1.2-0.6c-0.3,0.5-0.5,1.1-0.8,1.6
		c-0.1,0.2-0.1,0.4,0,0.7C23.9,15.6,24.2,16.6,24.5,17.6z"/>
	<path d="M16.8,17.5c-0.8,0.1-0.8,0.1-0.9-0.6c0-0.1-0.1-0.3-0.1-0.5c-0.3,0-0.6,0-1,0c0,0.2-0.1,0.5-0.1,0.7c0,0.3-0.1,0.5-0.5,0.4
		c-0.2,0-0.3,0-0.5,0c0.3-1.7,0.6-3.4,1-5.1c0.4,0,0.7,0,1.1,0C16.2,14.1,16.5,15.8,16.8,17.5z M14.9,15.6c0.3,0,0.5,0,0.7,0
		c-0.1-0.7-0.2-1.4-0.4-2.2C15.2,14.2,15,14.9,14.9,15.6z"/>
	<path d="M52,12.4c0.5,0,1,0,1.5,0c0.7,0,1.1,0.4,1.2,1.1c0.2,0.9-0.2,1.7-1.1,1.9c-0.2,0.1-0.5,0-0.8,0c0,0.4,0,0.7,0,1.1
		c0,0.3,0,0.7,0,1c-0.3,0-0.5,0-0.8,0C52,15.9,52,14.2,52,12.4z M52.8,14.8c0.4,0,0.8,0.1,1-0.3c0.1-0.3,0.1-0.8,0-1.1
		c-0.2-0.4-0.6-0.3-0.9-0.2C52.8,13.7,52.8,14.2,52.8,14.8z"/>
	<path d="M66.1,17.6c0-1.7,0-3.4,0-5.1c0.5,0,1.1,0,1.6,0c0.6,0.1,1,0.4,1.2,1.1c0.2,0.9-0.2,1.7-1.1,1.9c-0.2,0.1-0.5,0-0.8,0
		c0,0.7,0,1.4,0,2.1C66.6,17.6,66.4,17.6,66.1,17.6z M66.9,14.8c0.6,0,0.9,0,1-0.3c0.1-0.3,0.1-0.8,0-1.1c-0.2-0.4-0.6-0.3-0.9-0.2
		C66.9,13.7,66.9,14.2,66.9,14.8z"/>
	<path d="M89.7,12.5c1.1-0.1,0.8-0.1,1,0.8c0.2,0.9,0.3,1.8,0.5,2.7c0.2-1.1,0.4-2.1,0.6-3.1c0.1-0.4,0.2-0.5,0.5-0.4
		c0.1,0,0.3,0,0.4,0c-0.3,1.4-0.6,2.9-0.9,4.3c0,0.1,0,0.2,0,0.3c-0.1,0.6-0.3,0.7-0.9,0.6c-0.1,0-0.2-0.2-0.2-0.3
		c-0.3-1.5-0.6-3.1-0.9-4.6C89.8,12.6,89.7,12.5,89.7,12.5z"/>
	<path d="M31.8,12.5c0,0.2,0,0.5,0,0.7c-0.5,0-0.9,0-1.4,0c0,0.5,0,0.9,0,1.3c0.4,0,0.7,0,1.1,0c0,0.3,0,0.5,0,0.8
		c-0.4,0-0.7,0-1.1,0c0,0.5,0,1,0,1.5c0.5,0,1,0,1.5,0c0,0.3,0,0.5,0,0.8c-0.8,0-1.6,0-2.4,0c0-1.7,0-3.4,0-5.1
		C30.3,12.5,31,12.5,31.8,12.5z"/>
	<path d="M112.3,12.5c0.8,0,1.5,0,2.3,0c0,0.2,0,0.5,0,0.7c-0.5,0-0.9,0-1.4,0c0,0.5,0,0.9,0,1.3c0.4,0,0.7,0,1.1,0
		c0,0.3,0,0.5,0,0.8c-0.4,0-0.7,0-1.1,0c0,0.5,0,1,0,1.5c0.5,0,1,0,1.5,0c0,0.3,0,0.5,0,0.8c-0.8,0-1.6,0-2.4,0
		C112.3,15.9,112.3,14.2,112.3,12.5z"/>
	<path d="M143.5,17.6c-0.3,0-0.6,0-0.9,0c0.4-1.8-0.4-3.4-1-5.1c0.9-0.1,0.9-0.1,1.1,0.7c0.1,0.4,0.2,0.8,0.4,1.2
		c0.2-0.6,0.4-1,0.5-1.5c0.1-0.4,0.2-0.5,0.6-0.4c0.1,0,0.3,0,0.5,0c-0.3,0.8-0.5,1.6-0.9,2.4c-0.2,0.5-0.2,1-0.2,1.5
		C143.5,16.7,143.5,17.1,143.5,17.6z"/>
	<path d="M97.9,12.5c0.3,0,0.5,0,0.8,0c0,1.7,0,3.4,0,5.1c-0.3,0-0.5,0-0.8,0C97.9,15.9,97.9,14.2,97.9,12.5z"/>
	<path d="M38.7,15.3c0,0.2,0,0.4,0,0.6c-0.6,0-1.1,0-1.7,0c0-0.2,0-0.4,0-0.6C37.5,15.3,38.1,15.3,38.7,15.3z"/>
</g>
</svg>
