<?xml version="1.0" encoding="utf-8"?>
<!-- Generator: Adobe Illustrator 18.1.1, SVG Export Plug-In . SVG Version: 6.00 Build 0)  -->
<svg version="1.1" id="Layer_1" xmlns="http://www.w3.org/2000/svg" xmlns:xlink="http://www.w3.org/1999/xlink" x="0px" y="0px"
	 viewBox="0 0 150 50" enable-background="new 0 0 150 50" xml:space="preserve">
<g>
	<g>
		<path d="M73.9,30c1.3-4.4,0.5-8.6,0-12.8c-0.5-4-0.6-7.9,1-11.7c0.2-0.6,0.5-1.1,0.8-1.7c0,2.7-0.1,5.3,0,7.9
			c0.1,2.3,0.6,4.6,0.7,6.9c0.3,3.7-0.5,7.2-1.9,10.5c-0.1,0.3-0.3,0.5-0.4,0.7C74.1,29.9,74.1,29.9,73.9,30z"/>
	</g>
	<g>
		<path d="M90.2,32.1c3.9,0,7,3.1,7,7c0,4-3.1,7.1-7.2,7.1c-3.9,0-7-3.2-7-7.1C83.1,35.2,86.2,32.1,90.2,32.1z M90.2,44.3
			c2.6,0,4.9-2.3,4.9-5.1c0-2.8-2.3-5.2-4.9-5.2c-2.7,0-4.9,2.4-4.9,5.2C85.3,42,87.5,44.3,90.2,44.3z"/>
		<path d="M113.7,46c-0.9,0-1.6,0.1-2.3,0c-0.3,0-0.6-0.3-0.8-0.6c-0.7-1-1.5-2.1-2.1-3.2c-0.7-1.4-1.8-1.6-3.2-1.2
			c0,1.6,0,3.2,0,4.9c-0.7,0-1.4,0-2.1,0c0-4.5,0-8.9,0-13.5c2.3,0,4.7-0.3,6.9,0.6c1.4,0.5,2.1,1.6,2.2,3.1
			c0.1,1.5-0.2,2.9-1.5,3.8c-0.3,0.2-0.6,0.4-0.9,0.6C111.1,42.2,112.4,44,113.7,46z M105.3,39.2c1.2-0.1,2.3-0.2,3.3-0.4
			c1-0.2,1.6-1.1,1.6-2c0.1-1-0.4-1.7-1.2-2.1c-1.2-0.6-2.4-0.5-3.7-0.4C105.3,35.9,105.3,37.4,105.3,39.2z"/>
		<path d="M68.4,45.9c-0.8,0-1.4,0-2.1,0c0-4.5,0-8.9,0-13.4c0.6,0,1.3,0,2,0c0,1.8,0,3.5,0,5.4c2.3,0,4.5,0,6.8,0
			c0-1.8,0-3.5,0-5.4c0.8,0,1.4,0,2.1,0c0,4.5,0,8.9,0,13.4c-0.6,0-1.3,0-2.1,0c0-2,0-4,0-6.2c-2.3,0-4.5,0-6.8,0
			C68.4,41.7,68.4,43.7,68.4,45.9z"/>
		<path d="M117.2,45.9c0.3-1,0.6-2,1-2.9c1.1-3.3,2.3-6.6,3.3-9.9c0.3-0.8,0.7-0.8,1.3-0.8c0.6,0,1.3-0.3,1.6,0.7
			c1.3,4,2.7,7.9,4,11.9c0.1,0.3,0.1,0.5,0.2,0.9c-0.6,0-1.2,0-1.7,0c-0.2,0-0.4-0.3-0.7-0.5c-0.1-0.1-0.1-0.2-0.1-0.3
			c-0.3-0.8-0.3-1.9-0.9-2.3c-0.6-0.4-1.6-0.1-2.4-0.1c-2.4,0-2.4,0-3.1,2.3c-0.2,0.6-0.5,1-1.2,0.9
			C118.2,45.9,117.7,45.9,117.2,45.9z M124.9,41c-0.6-2.1-1.2-4-1.9-5.9c-0.1,0-0.1,0-0.2,0c-0.6,1.9-1.2,3.9-1.8,5.9
			C122.4,41,123.6,41,124.9,41z"/>
		<path d="M37.9,37.9c0.8,0,1.5,0,2.2,0c0.7,0,1.4,0,2.1,0c0,0.6,0,1.1,0,1.7c-1.4,0-2.9,0-4.3,0c0,1.5,0,3,0,4.5c2,0,4.1,0,6.2,0
			c0,0.6,0,1.2,0,1.8c-2.8,0-5.5,0-8.4,0c0-4.4,0-8.9,0-13.4c2.8,0,5.6,0,8.4,0c0,0.6,0,1.2,0,1.9c-2.1,0-4.1,0-6.2,0
			C37.9,35.5,37.9,36.6,37.9,37.9z"/>
		<path d="M53.5,41c0,1.6,0,3.2,0,4.9c-0.8,0-1.4,0-2.2,0c0-4.5,0-8.9,0-13.6c2.1,0.1,4.2,0.1,6.2,0.5c2,0.3,2.9,1.7,2.9,3.8
			c0,2.2-0.9,3.5-2.9,4C56.3,40.8,55,40.8,53.5,41z M53.6,39c1.3,0.1,2.5,0.2,3.7-0.4c0.8-0.4,1.2-1.2,1.2-2c0-0.9-0.4-1.6-1.3-1.9
			c-1.2-0.5-2.4-0.5-3.6-0.4C53.6,35.8,53.6,37.4,53.6,39z"/>
		<path d="M28.9,32.9c-0.3,0.8-0.5,1.4-0.7,1.9c-0.8-0.3-1.5-0.6-2.3-0.8c-1-0.2-1.9,0.3-2.2,1.1c-0.3,0.8-0.1,1.5,0.9,2.1
			c0.9,0.6,1.8,1,2.7,1.6c1.4,0.8,2.1,2,2,3.7c-0.2,2.4-1.8,3.8-4.5,3.7c-1.2-0.1-2.3-0.4-3.6-0.7c0.4-0.8,0.6-1.4,0.8-1.9
			c1.1,0.2,2.1,0.6,3.1,0.6c1.1,0.1,1.8-0.5,2.1-1.3c0.2-0.8-0.1-1.5-1.1-2.1c-1-0.6-2-1-2.9-1.6c-1.6-1-2.3-2.9-1.6-4.5
			c0.6-1.7,2.4-2.8,4.3-2.5C26.9,32.3,27.8,32.6,28.9,32.9z"/>
	</g>
</g>
</svg>
