<svg version="1.1" id="bride" xmlns="http://www.w3.org/2000/svg" xmlns:xlink="http://www.w3.org/1999/xlink" x="0px" y="0px"
	 viewBox="336.7 62.2 251.4 435.5" enable-background="new 336.7 62.2 251.4 435.5" xml:space="preserve">
<g>
	<g>
		<g>
			<path fill="none" d="M697.8,497.8c-145,0-290.5,0-435.5,0c0-145,0-290.5,0-435.5c145,0,290.5,0,435.5,0
				C697.8,207.1,697.8,352.7,697.8,497.8z M454.7,114c1.7,3.1,3.5,6.4,5.6,9.5c9.5,12.6,25.8,13.4,36.1,1.7
				c12.2-14,12.2-38.4-0.8-51.8c-9.2-9.5-22.1-10.1-31.8-1.4c-5.6,6.2-8.7,13.2-10.1,20.4c0,0.8-0.4,1.7-1.4,2.5
				c-2.2,2.5-4.8,4.8-7,7.4c-15.3,17.4-30.5,34.9-46.2,51.8c-18.2,20-37,39.2-58.8,55.7c-0.8,0.8-1.7,2.2-1.7,3.1
				c-0.8,5.3-0.8,10.9,0.4,16.1c0.4,1.4,1.4,2.5,2.2,3.9c1.7,1.7,3.9,3.5,5.3,5.3c6.2,7.4,11.8,14.3,17.9,21.8
				c6.2,7.4,12.2,14.3,20.4,19.6c10.9,6.4,22.1,8.3,33.9,2.2c2.2-1.4,4.3-1.7,6.4-2.5c2.5-0.8,4.8-0.8,7.4-0.4
				c1.4,0.4,1.7,0.8,1.7,2.5c-2.2,12.2-2.2,24.4-0.8,36.7c1.4,12.6,3.9,25.2,7,37.8c3.5,13.2,4.8,26.6,3.1,40
				c-2.5,21.8-12.6,40.6-27.9,56.3c-10.1,10.4-22.1,18.8-34.9,26c-2.5,1.7-5.3,3.5-7.4,5.6c-3.1,2.5-4.8,6.2-4.8,10.4
				c0,2.2,0,2.2,2.2,2.2c10.9,0,22.1,0,33,0c49.6,0,99.7,0,149.4,0c11.3,0,22.1,0,33.6,0c1.7,0,2.5-0.8,2.2-2.2
				c-0.4-2.5-0.8-4.8-2.2-7c-2.2-3.9-5.6-7-9.5-9.2c-9.5-5.6-18.8-11.3-27-18.8c-15.7-13.4-27.4-29.7-33-49.3
				c-5.3-17.4-4.8-34.9-0.4-52.4c3.1-13.2,6.2-25.8,7.4-38.8c1.7-16.5,1.4-32.8-3.1-48.7c-3.1-10.9-7.4-21.3-15.7-29.7
				c-0.4-0.4-0.4-0.8-0.4-0.8c-0.4-4.3-0.4-8.7-0.8-13.2c1.4,0,2.2-0.4,2.5-0.4c10.4-1.4,20.4-2.2,30.9-3.9c4.8-0.8,9.2-1.7,14-3.1
				c3.1-0.8,3.1-1.7,3.1-4.3c0-1.4-0.4-3.1-0.8-4.3c-3.1-9.2-6.2-18.2-9.5-27c-4.8-12.2-10.4-23.9-15.7-35.7
				c-2.5-5.6-5.6-7.4-11.8-7c-3.9,0.4-7.4,1.4-11.3,2.2c-1.7,0.4-3.1,0.8-4.8,1.4c4.3,8.7,8.7,17.4,13.2,26c-2.2,0-4.3,0.4-6.2-1.4
				c-0.8-0.8-1.7-1.4-2.5-2.2c-4.8-3.1-10.1-4.3-15.3-2.2c-3.9,1.7-7,4.8-9.5,8.3c-0.4,0.4-0.4,0.8-0.8,1.4
				c-0.8-1.4-1.4-2.2-2.2-3.1c-3.9-5.3-8.7-8.3-15.7-7.4c-3.5,0.4-7.4,2.2-10.4,4.8c-1.7,1.7-3.9,1.7-6.2,1.4
				c4.3-8.7,8.7-17.4,13.2-26c-3.5-1.7-12.6-3.9-16.5-3.9c-5.3-0.4-8.7,1.7-10.9,6.4c-2.5,5.3-4.8,10.9-7.4,16.1
				c-6.2,14-12.2,27.9-16.5,42.3c-0.8,3.1-1.7,6.4-2.2,10.1c-0.4,2.5,0,3.1,2.5,3.9c2.2,0.8,3.9,1.4,6.2,1.7
				c10.4,1.7,21.3,3.1,31.8,4.8c3.1,0.4,6.4,0.8,10.1,1.4c-0.4,4.3-0.4,8.7-0.8,12.6c0,0.4-0.4,0.8-0.4,1.4
				c-5.6,5.6-9.2,13.2-12.2,20.4c-0.4,0.4-0.4,1.4-0.8,1.7c-0.4,0-0.4,0-0.4-0.4s-0.4-0.4-0.4-0.8c-3.1-4.3-7.4-5.6-12.6-4.3
				c-2.5,0.8-4.8,1.7-7.4,2.5c-4.3,1.7-9.2,3.5-14,3.5c-11.3,0-21-4.3-29.1-11.8c-6.4-6.2-11.8-13.2-17.4-20
				c-2.2-2.5-4.3-5.3-6.2-7.8C388.9,189.3,422.5,152.2,454.7,114z"/>
			<path d="M454.7,114c-32.2,37.8-66.2,74.9-102.8,109.8c1.7,2.5,3.9,5.3,6.2,7.8c5.3,7,10.9,14,17.4,20
				c8.3,7.4,17.9,11.8,29.1,11.8c4.8,0,9.5-1.7,14-3.5c2.5-0.8,4.8-1.7,7.4-2.5c5.3-1.4,9.5,0,12.6,4.3c0,0.4,0.4,0.4,0.4,0.8
				c0,0,0,0,0.4,0.4c0.4-0.4,0.4-1.4,0.8-1.7c3.1-7.4,7-14.3,12.2-20.4c0.4-0.4,0.4-0.8,0.4-1.4c0.4-4.3,0.4-8.3,0.8-12.6
				c-3.5-0.4-7-0.8-10.1-1.4c-10.4-1.7-21.3-3.1-31.8-4.8c-2.2-0.4-3.9-0.8-6.2-1.7c-2.2-0.8-3.1-1.7-2.5-3.9
				c0.4-3.5,1.4-6.4,2.2-10.1c4.3-14.3,10.4-28.3,16.5-42.3c2.2-5.3,4.8-10.9,7.4-16.1c2.2-4.8,5.6-6.4,10.9-6.4
				c3.9,0,13.4,2.5,16.5,3.9c-4.3,8.7-8.7,17.4-13.2,26c2.5,0.4,4.3,0,6.2-1.4c3.1-2.5,6.4-4.3,10.9-4.8c7-0.8,11.8,2.5,15.7,7.4
				c0.8,0.8,1.4,1.7,2.2,3.1c0.4-0.4,0.8-0.8,0.8-1.4c2.5-3.5,5.3-6.4,9.5-8.3c5.6-2.2,10.4-0.4,15.3,2.2c0.8,0.4,2.2,1.4,2.5,2.2
				c1.7,1.7,3.5,1.7,6.2,1.4c-4.3-8.7-8.7-17.4-13.2-26c1.7-0.4,3.1-0.8,4.8-1.4c3.9-0.8,7.4-2.2,11.3-2.2c6.2-0.8,9.2,1.4,11.8,7
				c5.3,11.8,10.9,23.9,15.7,35.7c3.5,8.7,6.4,17.9,9.5,27c0.4,1.4,0.4,3.1,0.8,4.3c0.4,3.1,0,3.9-3.1,4.3c-4.8,1.4-9.2,2.2-14,3.1
				c-10.1,1.4-20.4,2.5-30.9,3.9c-0.8,0-1.7,0-2.5,0.4c0.4,4.3,0.4,8.7,0.8,13.2c0,0.4,0.4,0.8,0.4,0.8c7.8,8.3,12.6,18.8,15.7,29.7
				c4.3,16.1,4.8,32.2,3.1,48.7c-1.4,13.2-4.3,26-7.4,38.8c-4.3,17.4-4.3,34.9,0.4,52.4c5.6,20,17.4,36.1,33,49.3
				c8.3,7,17.4,13.2,27,18.8c3.9,2.2,7.4,4.8,9.5,9.2c1.4,2.2,1.7,4.8,2.2,7c0.4,1.7-0.4,2.2-2.2,2.2c-11.3,0-22.1,0-33.6,0
				c-49.6,0-99.7,0-149.4,0c-10.9,0-22.1,0-33,0c-2.2,0-2.2,0-2.2-2.2c0-4.3,1.7-7.8,4.8-10.4c2.2-2.2,4.8-4.3,7.4-5.6
				c12.6-7.4,24.4-15.7,34.9-26c15.3-15.7,25.2-33.9,27.9-56.3c1.7-13.4,0.4-27-3.1-40c-3.1-12.6-6.2-24.9-7-37.8
				c-1.4-12.2-1.4-24.4,0.8-36.7c0.4-1.4,0-2.2-1.7-2.5c-2.5-0.8-5.3-0.4-7.4,0.4c-2.2,0.8-4.8,1.7-6.4,2.5
				c-11.8,6.2-23.1,4.3-33.9-2.2c-8.3-5.3-14.3-12.2-20.4-19.6c-6.2-7.4-11.8-14.3-17.9-21.8c-1.7-1.7-3.5-3.5-5.3-5.3
				c-0.8-0.8-1.7-2.5-2.2-3.9c-1.4-5.3-1.4-10.4-0.4-16.1c0-1.4,0.8-2.5,1.7-3.1c21.3-16.5,40.6-35.7,58.8-55.7
				c15.7-17.1,30.9-34.4,46.2-51.8c2.2-2.5,4.8-4.8,7-7.4c0.4-0.8,0.8-1.7,1.4-2.5c1.4-7.8,4.8-14.8,10.4-20
				c9.5-8.7,22.7-8.3,31.8,1.4c13.2,13.4,13.2,37.8,0.8,51.8c-10.4,11.8-26.6,10.9-36.1-1.7C458.2,120.9,457,117.5,454.7,114z
				 M479.9,225.9c0,0.4,0.4,0.4,0.4,0.8c0,0.8-0.4,1.4,0,2.2c0.4,1.7,2.5,3.1,4.8,2.2c1.7-0.4,3.5-3.1,2.5-4.3
				c-0.4-0.8-1.7-2.2-2.5-2.5c-1.4-0.4-2.5-0.4-3.5,0.8C481.3,225.5,480.5,225.5,479.9,225.9c-0.4-0.4-0.8-0.4-0.8-0.8
				c0.8-0.8,0.4-3.5-0.4-4.8c-0.4-0.4-3.9-1.4-4.8-0.8c-1.7,0.8-2.5,3.1-2.2,5.6c0.4,1.7,2.5,3.1,4.3,3.1c1.4,0,2.2-0.8,3.1-1.7
				v-0.6C479.1,225.5,479.5,225.5,479.9,225.9z M518.7,179.7c-5.6,10.9-9.5,21.8-11.8,33c0.8,0,1.4-0.4,1.7-0.4
				c7-1.7,13.4-3.9,20.4-5.6c3.5-0.8,3.5-0.8,3.1-4.3c0-0.4-0.4-1.4-0.8-1.7c-1.4-2.2-2.5-4.3-3.9-6.2
				C524.9,189.3,521.8,184.6,518.7,179.7z M440.7,179.7c-3.9,6.4-7.8,13.2-11.8,19.2c-1.4,2.2-1.7,4.3-1.4,7
				c8.3,2.2,16.1,4.8,24.9,7C450.4,201.1,446.5,190.2,440.7,179.7z M496.2,218c-0.8-0.8-1.7-1.4-2.2-1.7c1.4,0,1.7,0,3.5,0.4
				c-1.4-0.4-1.7-0.8-3.1-1.4c1.4,0,2.2-0.4,3.1-0.4c-1.4-0.4-1.7-0.4-3.1-0.8c0.8-0.4,1.7-0.8,2.5-1.4c-1.4,0-2.2,0-3.1,0
				c0.8-0.4,1.4-0.8,2.2-1.4l0,0c-0.8,0-1.4,0.4-2.5,0.4c0.8-0.8,1.4-1.4,2.2-2.2c-1.4,0.4-1.7,0.8-2.5,1.4c0.4-0.8,0.8-1.4,1.4-2.5
				c-0.8,0.8-1.4,1.4-2.2,1.7c0.4-0.8,0.4-1.7,0.8-2.5c-0.8,0.8-1.4,1.4-1.7,2.2c0-1.4,0-1.7,0-2.5c0,0,0,0-0.4,0
				c-0.4,0.8-0.4,1.4-0.8,2.5c-0.8-1.4-1.4-1.7-1.4-2.2c-0.8,0-2.2,0.8-2.2-0.4c0.8,0,1.4,0,1.7,0c0.8,0,1.4-0.8,2.2-0.8
				c1.4-0.4,2.2-1.7,1.7-3.1c-0.4-1.4-2.2-2.2-3.1-1.4c-0.8,0.4-1.7,0.8-2.2,1.4c-0.8-0.8-2.2-1.7-3.1-1.4c-1.4,0.4-2.5,0.8-3.5,2.2
				c-0.4,0.8-0.4,2.2,0,3.5c0.4,1.7,2.2,2.2,3.1,3.5h0.4c0-0.8,0-1.4,0.4-2.5c0.4,0.8,0.8,1.7,0.8,1.7c-0.8,0.8-1.7,2.2-3.1,1.4
				c0.4,0.4,0.8,0.8,1.7,1.7c-1.4,0-1.7,0-2.5-0.4l0,0c0.8,0.4,1.4,0.8,2.5,1.4c-1.4,0-1.7,0.4-3.1,0.4c1.4,0.4,1.7,0.4,3.1,0.8
				c-0.8,0.4-1.7,0.8-2.2,0.8c0,0,0,0,0,0.4c0.8,0,1.7,0,2.5,0c-0.8,0.4-1.7,0.8-2.5,1.7c1.4-0.4,2.2-0.4,3.1-0.8
				c-0.8,0.8-1.4,1.4-1.7,2.2c1.4-0.4,1.7-0.8,2.5-1.4c-0.4,0.8-0.8,1.4-1.4,2.5c0.8-0.8,1.4-1.4,2.2-1.7c-0.4,0.8-0.4,1.7-0.8,2.5
				c0.8-0.8,1.4-1.4,1.7-2.2c0,1.4,0,2.2-0.4,3.5c0.4-1.4,0.8-1.7,1.4-3.1c0,1.4,0.4,1.7,0.4,3.1c0.4-1.4,0.4-2.2,0.8-3.1
				c0.4,0.8,0.8,1.7,0.8,2.2c0,0,0,0,0.4,0c0-0.8,0-1.4,0-2.2c0.4,0.8,0.8,1.4,1.7,2.2c-0.4-1.4-0.4-2.2-0.8-3.1
				c0.8,0.8,1.4,1.4,2.2,2.2c-0.4-1.4-0.8-1.7-1.4-3.1c0.8,0.4,1.7,0.8,2.2,1.4l0,0c-0.4-0.4-0.8-1.4-1.7-2.2
				C493.9,217.6,494.8,218,496.2,218z M467.8,214.1c0.4,1.4,0.8,3.5,3.5,3.5c1.7,0,2.5-1.7,3.1-3.1c0.8-0.4,1.7-0.8,2.2-1.4
				c0-0.4,0-1.4-0.4-1.7c-0.4-0.4-1.7-0.4-1.7,0c-1.4,1.4-2.5,0.4-3.1,0c0-1.4,0-1.7,0-2.5s-3.9-3.5-4.8-3.1
				c-1.4,0.4-2.2,1.4-3.1,2.2c-0.8,0.4-1.4,1.7-0.8,2.5c0.4,1.4,0.8,2.2,1.7,3.1c0.4,0.4,1.4,0.8,2.2,0.8
				C466.9,214.5,467.3,214.1,467.8,214.1z M470.8,201.9c0,1.4,3.1,4.3,4.8,3.9c1.4,0,2.2-0.8,3.1-1.7c0.4-0.8,0.8-1.7,0.8-3.1
				c0.4-1.4-3.1-4.3-4.8-3.9C473.9,196.8,471.3,200.3,470.8,201.9z M464.8,215c-0.4,0-0.8,0.4-0.8,0c-0.8-0.4-1.7-0.8-2.5-0.4
				c-1.4,0.4-2.2,1.4-2.5,2.2c-0.8,2.2-0.8,4.8,2.2,6.2c0.4,0,3.1,0.4,3.1,0.4c0.8-0.8,1.7-1.7,2.2-2.5c0.4-0.8,0.8-2.2,0-3.1
				C465.6,216.8,465.1,215.9,464.8,215z M497,208.5c1.7,0,3.1-0.8,3.1-2.5s-0.8-3.1-2.5-3.1c-1.7,0-3.1,0.8-3.1,3.1
				C494.4,207.7,495.2,208.5,497,208.5z"/>
			<path fill="none" d="M518.7,179.7c3.1,5.3,5.6,9.5,8.7,14.3c1.4,2.2,2.5,3.9,3.9,6.2c0.4,0.4,0.4,1.4,0.8,1.7
				c0.4,3.5,0.4,3.5-3.1,4.3c-7,1.7-13.4,3.9-20.4,5.6c-0.4,0-0.8,0-1.7,0.4C509.2,201.1,513.1,190.2,518.7,179.7z"/>
			<path fill="none" d="M440.7,179.7c5.6,10.9,9.5,21.3,11.8,33c-8.7-2.5-16.5-4.8-24.9-7c-0.4-2.5,0-4.8,1.4-7
				C432.9,192.8,436.8,186.3,440.7,179.7z"/>
			<path fill="none" d="M496.2,218c-1.4-0.4-1.7-0.4-3.1-0.8c0.8,0.8,1.4,1.4,1.7,2.2l0,0c-0.4-0.4-1.4-0.8-2.2-1.4
				c0.4,0.8,0.8,1.7,1.4,3.1c-0.8-0.8-1.4-1.4-2.2-2.2c0.4,1.4,0.4,1.7,0.8,3.1c-0.8-0.8-1.4-1.7-1.7-2.2c0,0.8,0,1.7,0,2.2
				c0,0,0,0-0.4,0c-0.4-0.8-0.4-1.4-0.8-2.2c-0.8,1.4-0.8,1.7-1.4,3.1c0-1.4-0.4-1.7-0.4-3.1c-0.4,0.8-0.8,1.7-1.4,3.1
				c0-1.4,0-2.2,0.4-3.5c-0.8,0.8-1.4,1.4-1.7,2.2c0.4-1.4,0.4-1.7,0.8-2.5c-0.8,0.8-1.4,1.4-2.2,1.7c0.4-0.8,0.8-1.7,1.4-2.5
				c-0.8,0.4-1.7,0.8-2.5,1.4c0.8-0.8,1.4-1.4,1.7-2.2c-1.4,0.4-1.7,0.4-3.1,0.8c0.8-0.8,1.7-1.4,2.5-1.7c-0.8,0-1.7,0-2.5,0
				c0,0,0,0,0-0.4c0.8-0.4,1.4-0.4,2.2-0.8c-0.8-0.4-1.7-0.4-3.1-0.8c1.4,0,1.7-0.4,3.1-0.4c-1.4-0.4-1.7-0.8-2.5-1.4l0,0
				c0.8,0,1.7,0,2.5,0.4c-0.8-0.8-1.4-1.4-1.7-1.7c1.7,0.8,2.5,0,3.1-1.4c0-0.4-0.4-1.4-0.8-1.7c0,0.8-0.4,1.7-0.4,2.5h-0.4
				c-0.8-1.4-2.5-2.2-3.1-3.5c0-1.4-0.4-2.5,0-3.5c0.8-0.8,2.2-1.7,3.5-2.2c0.8,0,2.2,0.4,3.1,1.4c0.8-0.4,1.7-0.8,2.2-1.4
				c1.4-0.4,2.5,0,3.1,1.4c0.6,1.4,0,2.5-1.7,3.1c-0.8,0.4-1.4,0.8-2.2,0.8c-0.4,0-1.4,0-1.7,0c0,1.4,0.8,0.8,2.2,0.4
				c0,0.4,0.4,0.8,0.4,1.4c0.4-0.8,0.8-1.7,0.8-2.5c0,0,0,0,0.4,0c0,0.8,0,1.4,0,2.5c0.8-0.8,1.4-1.4,1.7-2.2
				c-0.4,0.8-0.4,1.7-0.8,2.5c0.8-0.8,1.4-1.4,2.2-1.7c-0.4,0.8-0.8,1.7-1.4,2.5c0.8-0.4,1.7-0.8,2.5-1.4c-0.8,0.8-1.4,1.4-2.2,2.2
				c0.8-0.4,1.7-0.4,2.5-0.4l0,0c-0.4,0.4-1.4,0.8-2.2,1.4c1.4,0,1.7,0,3.1,0c-1.4,0.4-1.7,0.8-2.5,1.4c0.8,0.4,1.7,0.4,3.1,0.8
				c-1.4,0-1.7,0.4-3.1,0.4c1.4,0.4,1.7,0.8,3.1,1.4c-1.4,0-2.2,0-3.5-0.4C494.4,217.2,494.8,217.6,496.2,218z M488.3,208.9
				c-1.4-0.4-2.2-0.8-3.1-1.4c0.4,0.8,0.8,1.7,1.7,2.5C486.9,209.4,487.8,208.9,488.3,208.9z"/>
			<path fill="none" d="M467.8,214.1c-0.8,0-1.4,0.4-1.7,0.4c-0.8,0-1.7-0.4-2.2-0.8c-0.4-0.8-1.4-2.2-1.4-3.1
				c0-0.8,0.4-2.2,0.8-2.5c0.8-0.8,1.7-1.7,3.1-2.2c0.8-0.4,4.8,2.2,4.8,3.1c0,0.8,0,1.7,0,2.5c0.4,0.4,1.7,1.4,3.1,0
				c0.4-0.4,1.4-0.4,1.7,0c0.4,0.4,0.8,1.4,0.4,1.7c-0.4,0.8-1.4,0.8-2.2,1.4c-0.4,1.4-0.8,2.5-3.1,2.5
				C468.7,217.6,468.7,215.5,467.8,214.1z"/>
			<path fill="none" d="M479.9,225.9c-0.4,0-0.8-0.4-1.4-0.4v0.4c-0.8,0.4-2.2,1.4-3.1,1.7c-2.2,0.4-4.3-1.4-4.3-3.1
				c-0.4-2.2,0.4-4.8,2.2-5.6c0.8-0.4,4.3,0.4,4.8,0.8c0.8,1.7,1.4,4.3,0.4,4.8C479.5,225,479.5,225.5,479.9,225.9L479.9,225.9z"/>
			<path fill="none" d="M470.8,201.9c0-1.7,2.5-4.8,3.9-4.8c1.7,0,5.3,3.1,4.8,3.9c0,0.8-0.4,2.2-0.8,3.1c-0.8,0.8-2.2,1.7-3.1,1.7
				C473.9,205.9,470.8,203.2,470.8,201.9z"/>
			<path fill="none" d="M464.8,215c0.4,0.8,0.8,1.7,1.4,2.2c0.8,0.8,0.4,2.2,0,3.1c-0.4,0.8-1.4,1.7-2.2,2.5c-0.4,0.4-2.5,0-3.1-0.4
				c-2.5-1.4-3.1-3.5-2.2-6.2c0.4-0.8,1.4-1.7,2.5-2.2c0.8-0.4,1.7,0,2.5,0.4C463.8,215.5,464.3,215,464.8,215z"/>
			<path fill="none" d="M479.9,225.9c0.4-0.4,1.4-0.4,1.4-0.8c0.8-0.8,2.5-1.4,3.5-0.8c1.4,0.4,2.2,1.4,2.5,2.5
				c0.8,1.4-0.8,3.9-2.5,4.3c-2.2,0.4-4.3-0.4-4.8-2.2c0-0.4,0-1.4,0-2.2C480.5,226.3,480.5,225.9,479.9,225.9L479.9,225.9z"/>
			<path fill="none" d="M497,208.5c-1.7,0-2.5-1.4-2.5-2.5c0-1.7,1.4-3.1,3.1-3.1s2.5,1.4,2.5,3.1
				C500.1,207.7,498.7,208.5,497,208.5z"/>
			<path d="M488.3,208.9c-0.4,0.4-0.8,0.4-1.7,0.8c-0.4-0.8-0.8-1.7-1.7-2.5C486.1,208.1,486.9,208.5,488.3,208.9z"/>
		</g>
	</g>
</g>
</svg>
