<?xml version="1.0" encoding="utf-8"?>
<!-- Generator: Adobe Illustrator 18.1.1, SVG Export Plug-In . SVG Version: 6.00 Build 0)  -->
<svg version="1.1" id="Layer_1" xmlns="http://www.w3.org/2000/svg" xmlns:xlink="http://www.w3.org/1999/xlink" x="0px" y="0px"
	 viewBox="0 0 960 560" enable-background="new 0 0 960 560" xml:space="preserve">
<path id="SVGID_x5F_1_x5F_" fill="none" d="M479.9,70.1c11.2,0,22.3,0.9,33.4,2.6c10.7,1.7,21.3,4.2,31.6,7.6
	c10.2,3.3,20.1,7.4,29.6,12.2c9.4,4.8,18.5,10.2,27,16.3c8.5,6.1,16.6,12.8,24.2,20.1c7.6,7.3,14.6,15.2,21,23.5
	c6.4,8.4,12.2,17.2,17.3,26.4c5.1,9.3,9.6,19.1,13.2,29.1c3.7,10.1,6.6,20.5,8.7,31.1c2.1,10.8,3.4,21.8,3.8,32.9
	c0.4,11.2,0,22.5-1.4,33.6c-1.3,10.8-3.5,21.5-6.4,32c-2.9,10.3-6.7,20.4-11.1,30.2c-4.4,9.6-9.6,18.9-15.4,27.7
	c-5.8,8.8-12.2,17.1-19.2,24.9c-7,7.8-14.6,15.1-22.8,21.8c-8.1,6.7-16.7,12.8-25.7,18.2c-9.1,5.5-18.7,10.2-28.5,14.3
	c-9.9,4.1-20.2,7.3-30.6,9.8c-10.7,2.5-21.5,4.2-32.5,5.1c-11.2,0.9-22.5,0.8-33.7-0.1c-10.9-0.9-21.8-2.7-32.4-5.2
	c-10.5-2.6-20.7-5.9-30.7-10c-9.8-4.1-19.2-8.9-28.3-14.4c-9-5.5-17.6-11.6-25.6-18.3c-8.1-6.7-15.7-14.1-22.6-22
	c-7-7.9-13.4-16.2-19.1-25c-5.8-8.9-10.9-18.2-15.3-27.9c-4.4-9.7-8.1-19.8-10.9-30.1c-2.9-10.5-5-21.2-6.2-32.1
	c-1.3-11.2-1.7-22.4-1.2-33.7c0.5-11,1.8-22,4-32.8c2.2-10.6,5.2-21,8.9-31.2c3.7-9.9,8.2-19.6,13.4-28.9c5.1-9.2,11-18,17.4-26.3
	c6.4-8.3,13.5-16.2,21.1-23.4c7.6-7.2,15.7-13.9,24.3-19.9c8.7-6.1,17.8-11.5,27.3-16.2c9.5-4.7,19.4-8.8,29.6-12
	c10.3-3.3,20.9-5.8,31.6-7.4C458.4,70.9,469.1,70.1,479.9,70.1z"/>
<text><textPath  xlink:href="#SVGID_x5F_1_x5F_" startOffset="-8.0835%">
<tspan  font-family="'JosefinSans-Bold'" font-size="60">Esküvőre</tspan></textPath>
</text>
</svg>
