<svg version="1.1" id="shoe" xmlns="http://www.w3.org/2000/svg" xmlns:xlink="http://www.w3.org/1999/xlink" x="0px" y="0px"
	 viewBox="0 0 100 100.8" enable-background="new 0 0 100 100.8" xml:space="preserve">
<g>
	<g>
		<path d="M71.1,48.7c-2.1,4.8-4.5,9.5-6.1,14.4c-3.2,9.7-5.5,19.6-8.9,29.2c-0.9,2.5-4.2,5.7-6.5,5.8c-13.2,0.7-26.4,1.1-39.6,0.7
			c-8-0.2-12.9-9-8-15.3c5.3-6.8,12.6-12.3,19.5-17.8c1.4-1.1,5.3,0.1,7.6,1.1c8.6,3.6,13.3,3,18.1-5.2c4.5-7.6,7.9-15.9,11.5-24
			c5.7-12.6,11.3-25.1,22.6-34c6.9-5.5,9-5.2,13.6,2.4c5.3,8.8,7,18.6,2.8,27.8c-8.8,19.8-11.7,40.4-11,61.8c0,0.7-0.4,1.4-1.6,5
			c-2.3-3.8-4.3-5.8-4.6-8c-1.4-11.1-2.2-22.3-3.6-33.4c-0.4-3.6-2-7.1-3-10.6C72.9,48.8,72,48.7,71.1,48.7z"/>
	</g>
</g>
</svg>
