<svg version="1.1" id="insta" xmlns="http://www.w3.org/2000/svg" xmlns:xlink="http://www.w3.org/1999/xlink" x="0px" y="0px"
	 viewBox="0 0 100 99.9" enable-background="new 0 0 100 99.9" xml:space="preserve">
<path id="Instagram" sketch:type="MSShapeGroup" d="M50-0.1c-27.6,0-50,22.4-50,50s22.4,50,50,50s50-22.4,50-50S77.6-0.1,50-0.1z
	 M75,82.4H25c-4.1,0-7.5-3.4-7.5-7.5v-50c0-4.1,3.4-7.5,7.5-7.5h50c4.1,0,7.5,3.4,7.5,7.5v50C82.5,79.1,79.1,82.4,75,82.4z
	 M77.5,43.9h-6.3c0.5,1.8,0.7,3.7,0.7,5.6c0,12.3-9.9,22.3-22.2,22.3c-12.3,0-22.2-10-22.2-22.3c0-1.9,0.3-3.8,0.7-5.6H22v30.7
	c0,1.5,1.2,2.8,2.8,2.8h49.9c1.5,0,2.8-1.2,2.8-2.8V43.9z M78,24.4c0-1.4-1.1-2.5-2.5-2.5H68c-1.4,0-2.5,1.1-2.5,2.5v7.5
	c0,1.4,1.1,2.5,2.5,2.5h7.5c1.4,0,2.5-1.1,2.5-2.5V24.4z M50.2,32.4c-9.8,0-17.7,7.9-17.7,17.7c0,9.8,7.9,17.8,17.7,17.8
	C60.1,67.9,68,60,68,50.2C68,40.4,60.1,32.4,50.2,32.4z"/>
</svg>