<svg version="1.1" id="camera" xmlns="http://www.w3.org/2000/svg" xmlns:xlink="http://www.w3.org/1999/xlink" x="0px" y="0px"
	 viewBox="0 0 97.6 100" enable-background="new 0 0 97.6 100" xml:space="preserve">
<g>
	<path fill="none" d="M98.8,100c-33.3,0-66.7,0-100,0c0-33.3,0-66.6,0-100c33.3,0,66.7,0,100,0C98.8,33.3,98.8,66.7,98.8,100z
		 M26.1,30.4c-4.5,0-8.8,0-13,0c-7.1,0-13,5.8-13,12.9c0,13.1,0,26.2,0,39.3c0,7.2,5.9,12.9,13.1,12.9c4.3,0,8.7,0,13,0
		c0.3,0,0.6,0,1,0c-0.2-0.2-0.2-0.3-0.3-0.3c-2.2-1.9-4.5-3.9-6.7-5.8C19.8,89.1,19.4,89,19,89c-1.8,0-3.6,0-5.5,0
		c-4.2,0-7-2.7-7-6.9c0-7.9,0-15.8,0-23.7c0-4.9,0-9.8,0-14.7c0-3.5,2.5-6.2,5.9-6.5c2.1-0.2,4.3,0,6.4-0.1c0.4,0,1-0.2,1.3-0.5
		c3.4-3.6,7.2-6.5,11.6-8.6c0.6-0.3,0.7-0.7,0.7-1.3c0-4.1,0-8.1,0-12.2c0-3.9,2.8-6.7,6.6-6.7c6.4,0,12.8,0,19.2,0
		c3.8,0,6.6,2.8,6.6,6.6c0,4.1,0,8.2,0,12.3c0,0.7,0.2,1,0.8,1.2c4.4,2.1,8.2,5,11.6,8.5c0.3,0.3,0.8,0.5,1.3,0.5
		c1.9,0.1,3.8,0,5.7,0c3.9,0.1,6.7,2.7,6.7,6.5c0,13,0,26,0,39c0,3.7-2.9,6.5-6.6,6.5c-1.9,0-3.8,0-5.8,0c-0.5,0-1,0.3-1.3,0.6
		c-1.9,1.6-3.8,3.3-5.7,5c-0.3,0.3-0.7,0.5-1.2,0.9c0.6,0,0.9,0,1.2,0c4.3,0,8.5,0,12.8,0c7.5,0,13.2-5.7,13.2-13.2
		c0-12.9,0-25.7,0-38.6c0-7.5-5.8-13.2-13.2-13.2c-3.9,0-7.7,0-11.6,0c-0.3,0-0.7,0-1.1,0c0-0.5,0-0.8,0-1.2c0-4.9,0-9.7,0-14.6
		c0-7.7-5.6-13.5-13-13.5c-6.6,0-13.2,0-19.7,0C31.7,1.2,26.1,7,26.1,14.2c0,5,0,10,0,14.9C26.1,29.6,26.1,30,26.1,30.4z M48.8,98.8
		c19.7,0,35.8-16,35.8-35.8c0-19.8-16-35.5-35.1-35.8C29.6,26.9,13,43,13,63C13.1,82.7,29.1,98.8,48.8,98.8z M48.7,24.6
		c2.5,0,4.9,0,7.4,0c3.8,0,6.9-3.1,7-6.8c0.1-4.1-2.8-7.4-6.8-7.4c-5-0.1-10-0.1-15,0c-4,0.1-6.9,3.3-6.8,7.5c0.1,3.7,3.2,6.8,7,6.8
		C43.9,24.6,46.3,24.6,48.7,24.6z"/>
	<path d="M26.1,30.4c0-0.5,0-0.9,0-1.3c0-5,0-10,0-14.9c0-7.2,5.7-13,12.9-13.1c6.6,0,13.2,0,19.7,0c7.4,0.1,12.9,5.9,13,13.5
		c0,4.8,0,9.7,0,14.6c0,0.4,0,0.7,0,1.2c0.4,0,0.8,0,1.1,0c3.9,0,7.7,0,11.6,0c7.5,0,13.2,5.8,13.2,13.2c0,12.9,0,25.7,0,38.6
		c0,7.5-5.7,13.2-13.2,13.2c-4.3,0-8.5,0-12.8,0c-0.3,0-0.6,0-1.2,0c0.6-0.4,0.9-0.7,1.2-0.9c1.9-1.7,3.8-3.4,5.7-5
		c0.4-0.3,0.9-0.6,1.3-0.6c1.9-0.1,3.8,0,5.8,0c3.8,0,6.6-2.8,6.6-6.5c0-13,0-26,0-39c0-3.8-2.8-6.4-6.7-6.5c-1.9,0-3.8,0-5.7,0
		c-0.4,0-1-0.2-1.3-0.5c-3.3-3.5-7.2-6.4-11.6-8.5c-0.6-0.3-0.8-0.6-0.8-1.2c0-4.1,0-8.2,0-12.3c0-3.8-2.8-6.6-6.6-6.6
		c-6.4,0-12.8,0-19.2,0c-3.9,0-6.6,2.8-6.6,6.7c0,4.1,0,8.1,0,12.2c0,0.6-0.1,1-0.7,1.3c-4.4,2.1-8.3,5-11.6,8.6
		C19.9,36.8,19.4,37,19,37c-2.1,0.1-4.3,0-6.4,0.1c-3.5,0.3-5.9,3-5.9,6.5c0,4.9,0,9.8,0,14.7c0,7.9,0,15.8,0,23.7
		c0,4.2,2.7,6.9,7,6.9c1.8,0,3.6,0,5.5,0c0.4,0,0.8,0.2,1.1,0.4c2.3,1.9,4.5,3.9,6.7,5.8c0.1,0.1,0.1,0.1,0.3,0.3c-0.4,0-0.7,0-1,0
		c-4.3,0-8.7,0-13,0c-7.2,0-13-5.7-13.1-12.9c0-13.1,0-26.2,0-39.3c0-7.1,5.8-12.9,13-12.9C17.3,30.4,21.6,30.4,26.1,30.4z"/>
	<path d="M48.8,98.8c-19.7,0-35.7-16-35.8-35.8c0-20,16.5-36.1,36.4-35.8c19.1,0.3,35.2,16,35.1,35.8C84.6,82.8,68.5,98.8,48.8,98.8
		z M19.6,63c0,16,13.2,29.2,29.2,29.2C64.9,92.2,78,79.2,78,63C78,46,64,33.5,48.3,33.7C32.7,33.9,19.5,47.1,19.6,63z"/>
	<path d="M48.7,24.6c-2.4,0-4.7,0-7.1,0c-3.8,0-7-3.1-7-6.8c-0.1-4.2,2.8-7.4,6.8-7.5c5-0.1,10-0.1,15,0c3.9,0.1,6.8,3.3,6.8,7.4
		c-0.1,3.7-3.2,6.8-7,6.8C53.6,24.6,51.2,24.6,48.7,24.6z"/>
	<path fill="none" d="M19.6,63c0-15.9,13.2-29.1,28.8-29.3C64,33.5,78,46,78,63c0,16.2-13.2,29.2-29.3,29.2
		C32.7,92.2,19.6,79,19.6,63z M48.8,86.4c12.9,0,23.4-10.4,23.5-23.4c0-12.7-10.4-23.3-22.8-23.5c-12.7-0.3-24,9.8-24,23.4
		C25.3,75.9,35.8,86.4,48.8,86.4z"/>
	<path d="M48.8,86.4c-13,0-23.4-10.5-23.4-23.5c0-13.6,11.4-23.6,24-23.4c12.4,0.3,22.9,10.8,22.8,23.5C72.2,76,61.7,86.4,48.8,86.4
		z M35.8,63c0,7.2,5.9,13,13.1,13c7,0,12.9-5.9,12.9-13c0-7.3-5.9-13-13.3-13C41.6,50,35.8,56,35.8,63z"/>
	<path fill="none" d="M35.8,63c0-7,5.8-12.9,12.7-13c7.4,0,13.3,5.7,13.3,13c0,7-5.8,13-12.9,13C41.7,76,35.9,70.2,35.8,63z"/>
</g>
</svg>
