<?xml version="1.0" encoding="utf-8"?>
<!-- Generator: Adobe Illustrator 18.1.1, SVG Export Plug-In . SVG Version: 6.00 Build 0)  -->
<svg version="1.1" id="Layer_1" xmlns="http://www.w3.org/2000/svg" xmlns:xlink="http://www.w3.org/1999/xlink" x="0px" y="0px"
	 viewBox="-59 -9 150 50" enable-background="new -59 -9 150 50" xml:space="preserve">
<g>
	<path fill="#FFFFFF" d="M69.1,21c0.4-4.2,0.7-8.5,1.1-12.8c0.5,0,0.9,0,1.4,0C71,13.5,70.5,18.6,70,23.9c-0.7,0-1.2,0-1.9,0
		c-0.4-4.2-0.7-8.5-1.1-12.8c-0.1,0-0.1,0-0.2,0c-0.4,4.2-0.7,8.5-1.1,12.8c-0.7,0-1.2,0-1.9,0c-0.5-5.2-1.1-10.4-1.5-15.6
		c1.1-0.6,1.4-0.1,1.4,1c0.3,3.9,0.7,7.7,1.2,11.6c0.2-2,0.4-4,0.5-6c0.1-1.7,0.3-3.6,0.4-5.3C65.9,8,65.9,8,67.7,8.3
		c0.4,4.2,0.8,8.5,1.2,12.8C69,21,69.1,21,69.1,21z"/>
	<path fill="#FFFFFF" d="M79.3,8.1c0.8,0,1.3,0,2,0c0.6,4.1,1.1,8,1.6,12c0.1,0,0.2,0,0.2,0c0-3.4,0-6.8,0-10.1c0-0.4-0.1-0.8,0-1.1
		c0.1-0.3,0.4-0.5,0.7-0.8c0.2,0.2,0.6,0.5,0.6,0.7c0,5,0,10,0,15.2c-0.7,0-1.4,0-2,0c-0.6-4.2-1.1-8.3-1.6-12.5c-0.1,0-0.2,0-0.3,0
		c0,3.8,0,7.5,0,11.3c0,0.8,0,1.5-1.2,1.1C79.3,18.6,79.3,13.4,79.3,8.1z"/>
	<path fill="#FFFFFF" d="M-52.4,24c0-5.4,0-10.6,0-15.7c0.2-0.1,0.3-0.2,0.4-0.2c4.8-0.2,4.6-0.2,4.5,4.2c0,2.4,0,2.4-0.6,3.1
		c0.3,1,0.6,1.6,0.7,2.4c0.1,1.4,0,3,0,4.4c0,1.2-0.6,1.8-1.7,1.8C-50.2,24-51.2,24-52.4,24z M-50.9,22.7c1.4,0.3,2.1,0,2-1.5
		c-0.1-1,0-2,0-3c0-1.7-0.2-1.8-2-1.5C-50.9,18.5-50.9,20.6-50.9,22.7z M-50.9,14.9c1.4,0.4,2-0.1,2-1.4c0-0.9,0-1.7,0-2.6
		c0-1.6-0.3-1.7-2-1.4C-50.9,11.3-50.9,13-50.9,14.9z"/>
	<path fill="#FFFFFF" d="M-11.5,24c0-5.4,0-10.6,0-15.7c0.2-0.1,0.3-0.2,0.4-0.2c5-0.2,4.5,0,4.5,4.2c0,2.4,0,2.4-0.6,3.1
		c0.3,0.9,0.6,1.6,0.7,2.3c0.1,1.4,0,2.8,0,4.2c0,1.4-0.6,2-1.9,2C-9.3,24-10.3,24-11.5,24z M-10,22.7c1.4,0.4,2.1,0,2-1.5
		c-0.1-1,0-2,0-3c0-1.7-0.2-1.8-2-1.5C-10,18.5-10,20.6-10,22.7z M-10,9.4c0,1.8,0,3.7,0,5.5c1.5,0.4,2-0.2,2-1.6
		c-0.1-0.8,0-1.6,0-2.4C-8.1,9.3-8.3,9.1-10,9.4z"/>
	<path fill="#FFFFFF" d="M-25,8.1c5.7-0.3,4.8,0.1,4.8,4.2c0,1.1-0.2,2.2-0.5,3.2c0.2,0.8,0.5,1.5,0.6,2.3c0.1,1.4,0,2.7,0,4.2
		c0,1.4-0.6,2-1.9,2c-1,0-1.9,0-3,0C-25,18.6-25,13.4-25,8.1z M-23.6,22.7c1.4,0.3,2.1-0.1,2-1.5c-0.1-1,0-2,0-3
		c0-1.6-0.3-1.8-2-1.4C-23.6,18.5-23.6,20.5-23.6,22.7z M-23.6,14.9c1.5,0.4,2-0.2,1.9-1.5c-0.1-0.9,0-1.7,0-2.6
		c0.1-1.4-0.7-1.7-1.9-1.4C-23.6,11.3-23.6,13.1-23.6,14.9z"/>
	<path fill="#FFFFFF" d="M22,8.1c4.7-0.4,4.9-0.4,4.8,4.2c0,1.1,0.4,2.4-0.6,3.1c0.3,0.9,0.6,1.6,0.7,2.4c0.1,1.4,0,2.8,0,4.2
		c0,1.3-0.6,1.9-1.8,1.8c-1,0-2,0-3.1,0C22,18.6,22,13.4,22,8.1z M23.5,16.5c0,2.1,0,4.2,0,6.2c1.5,0.3,2.1-0.3,2-1.6
		c-0.1-1,0-1.9,0-2.9C25.4,16.4,25.3,16.3,23.5,16.5z M23.5,15c1.7,0,1.9-0.1,1.9-1.5c0-0.9,0-1.7,0-2.6c0-1.6-0.3-1.8-1.9-1.4
		C23.5,11.3,23.5,13.1,23.5,15z"/>
	<path fill="#FFFFFF" d="M37,23.9c-0.6,0-1,0-1.4,0c0-5.2,0-10.5,0-15.8c1.3,0,2.4-0.1,3.6,0.1c0.5,0.1,1.2,0.7,1.2,1.2
		c0.1,1.7,0.1,3.5,0,5.2c0,0.4-0.4,0.8-0.6,1.1c1.5,2.6,0.3,5.5,0.9,8.3c-1.2,0.4-1.6,0.2-1.6-0.9c0.1-1.6,0-3.3,0-4.9
		s-0.2-1.7-2.1-1.5C37,18.9,37,21.4,37,23.9z M37,14.9c1.5,0.4,2-0.2,2-1.5c-0.1-0.8,0-1.6,0-2.4c0-1.6-0.2-1.7-1.9-1.5
		C37,11.3,37,13.1,37,14.9z"/>
	<path fill="#FFFFFF" d="M-38.9,15.9c0-1.8,0-3.7,0-5.5c0-1.7,0.9-2.6,2.5-2.6c1.6,0,2.6,0.9,2.6,2.6c0,3.7,0,7.3,0,11
		c0,1.8-0.9,2.6-2.6,2.7c-1.6,0-2.5-0.9-2.5-2.7C-38.9,19.6-38.9,17.7-38.9,15.9z M-35.2,16L-35.2,16c0-1.8,0.1-3.8-0.1-5.6
		c0-0.5-0.8-0.9-1.2-1.3c-0.3,0.4-1,0.9-1,1.3c-0.1,3.7-0.1,7.4,0,11.1c0,0.5,0.7,0.9,1.1,1.4c0.4-0.5,1-0.9,1.1-1.4
		C-35.1,19.7-35.2,17.8-35.2,16z"/>
	<path fill="#FFFFFF" d="M54.3,16.1c0,1.8,0,3.7,0,5.5c-0.1,1.8-1,2.6-2.7,2.6c-1.5,0-2.4-0.9-2.5-2.6c0-3.7,0-7.3,0-11
		c0-1.8,0.9-2.7,2.6-2.7c1.7,0,2.5,0.9,2.5,2.7C54.3,12.4,54.3,14.3,54.3,16.1z M52.7,16.2L52.7,16.2c0-1.9,0.1-3.9-0.1-5.8
		c0-0.5-0.7-0.9-1-1.3c-0.4,0.4-1.1,0.9-1.1,1.3c-0.1,3.7-0.1,7.4,0,11.1c0,0.5,0.7,0.9,1.1,1.4c0.4-0.5,1-0.9,1.1-1.4
		C52.8,19.8,52.7,17.9,52.7,16.2z"/>
	<path fill="#FFFFFF" d="M2.1,8.2C3.1,7.9,3.5,8,3.5,9c0,4.6,0,9.3,0,13.8c0,1.1-0.5,1.3-1.4,1C2.1,18.7,2.1,13.5,2.1,8.2z"/>
</g>
</svg>
