<?xml version="1.0" encoding="utf-8"?>
<!-- Generator: Adobe Illustrator 18.1.1, SVG Export Plug-In . SVG Version: 6.00 Build 0)  -->
<svg version="1.1" id="Layer_1" xmlns="http://www.w3.org/2000/svg" xmlns:xlink="http://www.w3.org/1999/xlink" x="0px" y="0px"
	 viewBox="0 0 150 50" enable-background="new 0 0 150 50" xml:space="preserve">
<g>
	<g>
		<path d="M32.7,10.8c0,9.5,0,19,0,28.5c-9.5,0-18.9,0-28.4,0c0-9.5,0-19,0-28.5C13.8,10.8,23.2,10.8,32.7,10.8z M32.5,39
			c0-9.4,0-18.7,0-28c-9.4,0-18.7,0-28,0c0,9.4,0,18.7,0,28C13.9,39,23.2,39,32.5,39z"/>
		<path d="M20.4,33.6c0.7-0.8,1.5-1.6,2-2.4c0.7-1,1.1-2.2,0.7-3.5c-0.1-0.3-0.2-0.6-0.4-0.7c-0.1-0.1-0.4-0.1-0.6-0.1
			c0,0.2,0,0.4,0.1,0.6c0.8,0.9,0.7,1.9,0.1,2.8c-0.7,1.1-1.6,2-2.4,3c-0.1,0.1-0.5,0.2-0.6,0.1c-1.2-0.6-2.3-1.2-3.6-1.9
			c1.8-1.5,3.1-3.3,4.2-5.2c0.1-0.2,0.3-0.3,0.5-0.4c3.9-0.9,7.4-2.7,10.3-5.4c0,0,0.1,0,0.3-0.1c0,0.3,0,0.5,0,0.8
			c0,3.5,0,7,0,10.5c0,0.5-0.1,0.8-0.6,1.1C27.3,34.6,23.9,34.9,20.4,33.6z"/>
		<path d="M31,12.5c0,0.5,0,1,0,1.5c-1.4-0.2-2.6,0.2-3.8,0.9c-0.1,0.1-0.4,0.1-0.5,0c-1.9-1.3-4-1.3-6.1-0.9
			c-1.9,0.4-3.7,0.9-5.2,2c-0.5,0.4-1,0.8-1.3,1.3c-0.9,1.3-0.5,2.6,1,3.3c0.4,0.2,0.7,0.3,1.3,0.6c-0.5,0.2-0.7,0.4-1,0.4
			C13,22,10.9,22.8,8.9,24c-0.2,0.1-0.6,0-0.8,0c-0.1,0-0.2-0.1-0.3-0.2C6.4,23,5.6,22,5.9,20.3c0.1-0.3,0-0.6,0-0.9
			c-0.2-1.4,0.4-2.4,1.3-3.3c1.7-1.7,3.7-2.8,5.9-3.6c0.2-0.1,0.4-0.1,0.5-0.1c5.6,0,11.2,0,16.7,0C30.6,12.4,30.8,12.5,31,12.5z"/>
		<path d="M10,24.9c1.1-1.3,2.4-1.9,3.8-2.4c0.7-0.3,1.5-0.5,2.2-0.7c0.7-0.3,0.8-0.6,0.2-1.1c-0.8-0.8-1.1-1.7-0.5-2.7
			c0.4-0.7,0.9-1.4,1.5-1.8c2.2-1.5,4.6-2.1,7.2-1.6c0.7,0.1,1.3,0.5,2,0.7c-1.1,0.9-2.1,1.7-3,2.6c-2,2-3.4,4.5-4.6,7
			c-0.2,0.5-0.5,0.8-1.1,0.8C15.1,25.7,12.6,25.7,10,24.9z"/>
		<path d="M18.3,26.1c-1,1.7-1.9,3.3-2.9,4.9c-0.9-0.5-1.5-0.9-2.2-1.2c-0.7-0.2-1.5-0.3-2.3-0.2c-0.6,0.1-1,0.6-1.1,1.2
			c-0.1,0.7,0.3,1.1,0.9,1.4c1.4,0.6,2.7,0.5,4-0.2c0.6-0.3,0.9-0.2,1.4,0.1c0.9,0.6,1.8,1.2,2.8,2c-1.2,0.4-2.4,0.9-3.6,1.1
			c-1.5,0.3-3.1,0.3-4.5-0.3c-2.5-1-3.6-3.1-3-5.8c0.1-0.6,0.4-1.3,0.7-1.9c1-2,1-1.8,3.1-1.5c2,0.3,4.1,0.2,6.1,0.3
			C17.7,26.1,17.9,26.1,18.3,26.1z"/>
		<path d="M31,33.3c0,1.5,0,2.8,0,4.2c-8.4,0-16.7,0-25,0C6,36,6,34.5,6,33c0.1,0,0.2,0.1,0.3,0.1c3.3,3.3,7.8,3.7,12,1.6
			c0.8-0.4,1.5-0.4,2.3,0c3.6,1.7,7,1.4,10-1.2C30.7,33.5,30.8,33.4,31,33.3z"/>
		<path d="M20.6,25c1.7-3.3,3.6-6.4,6.4-8.9c1.1,1.2,0.5,3.3-1,3.8c-0.2,0.1-0.4,0.3-0.6,0.5c0.3,0,0.7,0.2,0.9,0.1
			c1.3-0.5,2.1-2.5,1.6-3.9c-0.1-0.3-0.2-0.6-0.4-1c0.9-0.7,1.8-1.1,2.8-1.1c0.5,0,0.8,0.1,0.7,0.7c0,0.8-0.1,1.7,0,2.5
			c0,0.7-0.2,1.3-0.7,1.8c-2.7,2.7-5.9,4.4-9.5,5.4C20.8,25,20.7,25,20.6,25z"/>
		<path d="M6,16.8c0-1.6,0-2.9,0-4.3c1.9,0,3.8,0,5.6,0C9.5,13.5,7.6,14.8,6,16.8z"/>
		<path d="M14.8,31.3c-1.2,0.7-2.3,1-3.6,0.6c-0.5-0.2-0.9-0.4-0.9-1.1c0.1-0.7,0.6-0.9,1.1-0.9C12.7,29.9,13.7,30.5,14.8,31.3z"/>
		<path d="M6,26.4c0-1,0-2.1,0-3.4c0.7,0.5,1.3,1,2,1.5C7.3,25.2,6.6,25.8,6,26.4z"/>
	</g>
	<g>
		<path d="M116.2,31.5c0-3.8,0-7.5,0-11.3c0.1,0,0.2,0,0.3,0c1.4,0,2.8,0,4.2,0c0.9,0,1.9,0.1,2.7,0.5c1.2,0.6,2.1,1.5,2.5,2.8
			c0.4,1.4,0.4,2.9,0,4.3c-0.5,1.8-1.8,2.8-3.5,3.3c-0.7,0.2-1.4,0.3-2.2,0.3c-1.2,0-2.5,0-3.7,0C116.4,31.5,116.3,31.5,116.2,31.5z
			 M117.7,30.9c1.2-0.1,2.4,0,3.5-0.2c1.6-0.2,2.8-1.1,3.2-2.8c0.4-1.4,0.4-2.8,0-4.2c-0.5-1.8-1.7-2.7-3.5-2.9
			c-1-0.1-1.9,0-2.9-0.1c-0.3,0-0.3,0.1-0.3,0.3c0,3.1,0,6.2,0,9.3C117.7,30.6,117.7,30.7,117.7,30.9z"/>
		<path d="M142,25.9c1.2,1.8,2.4,3.7,3.7,5.5c-0.3,0-0.6,0-0.8,0c-0.6,0.1-1-0.2-1.3-0.7c-0.9-1.5-1.9-3-2.8-4.5
			c-0.1-0.2-0.2-0.2-0.4-0.2c-0.6,0-1.3,0-1.9,0c0,1.8,0,3.6,0,5.4c-0.5,0-1,0-1.5,0c0-3.7,0-7.5,0-11.3c0.1,0,0.2,0,0.3,0
			c1.3,0,2.7,0,4,0c0.7,0,1.4,0.1,2.1,0.4c1.5,0.6,2.1,2.2,1.4,3.6c-0.4,0.8-1.1,1.2-1.8,1.5C142.6,25.8,142.3,25.8,142,25.9z
			 M138.4,25.4c0.7,0,1.5,0,2.2,0c0.5,0,1-0.1,1.5-0.3c1.1-0.4,1.6-1.3,1.4-2.5c-0.1-1-0.8-1.7-1.9-1.8c-0.9-0.1-1.9,0-2.8-0.1
			c-0.2,0-0.3,0.1-0.3,0.3c0,1.2,0,2.3,0,3.5C138.4,24.9,138.4,25.1,138.4,25.4z"/>
		<path d="M104.1,31.5c-0.5,0-1,0-1.5,0c-0.1,0-0.2-0.1-0.2-0.2c-0.5-1.3-1.1-2.6-1.6-3.8c-0.1-0.2-0.2-0.2-0.4-0.2
			c-1.4,0-2.7,0-4.1,0c-0.2,0-0.3,0.1-0.3,0.2c-0.5,1.3-1,2.5-1.5,3.8c-0.1,0.2-0.2,0.3-0.4,0.2c-0.2,0-0.5,0-0.8,0
			c0.1-0.3,0.2-0.6,0.4-0.9c1.4-3.4,2.9-6.8,4.3-10.3c0.1-0.2,0.2-0.3,0.4-0.3c0.2,0,0.4,0,0.7,0c0.2,0,0.2,0.1,0.3,0.2
			c1.5,3.6,3.1,7.3,4.6,10.9C104,31.3,104.1,31.3,104.1,31.5z M96.4,26.5c1.4,0,2.7,0,4,0c-0.7-1.7-1.3-3.3-2-5
			C97.7,23.2,97.1,24.8,96.4,26.5z"/>
		<path d="M104.9,20.2c0.5,0,1,0,1.5,0c0,0.1,0,0.2,0,0.3c0,2.5,0,5,0,7.5c0,1.5,0.8,2.6,2.3,2.9c0.6,0.1,1.3,0.1,1.9,0
			c0.5-0.1,1-0.3,1.4-0.6c0.8-0.6,1.1-1.5,1.1-2.4c0-2.5,0-4.9,0-7.4c0-0.1,0-0.2,0-0.4c0.3,0,0.6,0,0.9,0c0,0.1,0,0.2,0,0.3
			c0,2.5,0,4.9,0,7.4c0,2-1.2,3.4-3.2,3.7c-1,0.2-1.9,0.2-2.9-0.1c-1.9-0.4-2.9-1.7-2.9-3.6c0-2.5,0-5,0-7.6
			C104.9,20.3,104.9,20.3,104.9,20.2z"/>
		<path d="M52.5,21.7c-0.3-0.2-0.6-0.4-1-0.6c-1-0.5-2.1-0.7-3.2-0.3c-0.9,0.3-1.5,1.1-1.4,2c0.1,0.6,0.4,1,0.9,1.3
			c0.7,0.3,1.5,0.6,2.2,0.9c0.6,0.2,1.1,0.4,1.7,0.7c1.8,0.9,2.2,3.1,0.9,4.6c-0.8,0.9-1.7,1.3-2.8,1.5c-1.3,0.2-2.6,0-3.9-0.6
			c-0.2-0.1-0.3-0.2-0.3-0.4c0-0.2,0-0.4,0-0.7c0,0,0,0,0,0c0.4,0.2,0.7,0.4,1.1,0.6c1.1,0.5,2.3,0.7,3.5,0.3
			c0.9-0.3,1.6-0.9,1.8-1.9c0.2-0.7,0-1.4-0.7-1.8c-0.5-0.3-1.1-0.5-1.7-0.8c-0.8-0.3-1.6-0.5-2.4-0.9c-1.4-0.7-1.9-1.9-1.5-3.3
			c0.3-1.1,1.1-1.7,2.1-2c1.3-0.4,2.5-0.3,3.8,0.1c0,0,0.1,0,0.1,0C52.7,20.7,52.5,20.5,52.5,21.7z"/>
		<path d="M65.4,30.7c1.7,0,3.4,0,5.2,0c0,0.2,0,0.5,0,0.7c-2.2,0-4.4,0-6.7,0c0-3.8,0-7.5,0-11.3c2.2,0,4.4,0,6.6,0
			c0,0.2,0,0.4,0,0.7c-1.7,0-3.4,0-5.1,0c0,1.4,0,2.8,0,4.2c1.6,0,3.1,0,4.6,0c0,0,0,0.1,0,0.1c0.1,0.6,0.1,0.6-0.6,0.6
			c-1.3,0-2.6,0-3.8,0c-0.1,0-0.2,0-0.3,0C65.4,27.4,65.4,29.1,65.4,30.7z"/>
		<path d="M78.9,25c0,0.2,0,0.4,0,0.7c-1.6,0-3.1,0-4.7,0c0,1.7,0,3.4,0,5.1c1.7,0,3.4,0,5.2,0c0,0.3,0,0.5,0,0.7
			c-2.2,0-4.4,0-6.7,0c0-3.8,0-7.5,0-11.3c2.2,0,4.4,0,6.6,0c0,0.2,0,0.4,0,0.7c-1.7,0-3.4,0-5.1,0c0,1.4,0,2.8,0,4.2
			C75.8,25,77.4,25,78.9,25z"/>
		<path d="M39,30.8c1.7,0,3.4,0,5.2,0c0,0.2,0,0.5,0,0.7c-2.2,0-4.4,0-6.7,0c0-3.7,0-7.5,0-11.2c2.2,0,4.4,0,6.6,0
			c0,0.2,0,0.4,0,0.7c-1.7,0-3.4,0-5.1,0c0,1.4,0,2.8,0,4.1c1.6,0,3.1,0,4.7,0c0,0.2,0,0.4,0,0.7c-1.5,0-3.1,0-4.7,0
			C39,27.4,39,29,39,30.8z"/>
		<path d="M129.6,20.9c0,1.4,0,2.8,0,4.1c1.6,0,3.1,0,4.7,0c0,0.2,0,0.4,0,0.7c-1.6,0-3.1,0-4.7,0c0,1.7,0,3.4,0,5.1
			c1.7,0,3.4,0,5.2,0c0,0.2,0,0.5,0,0.7c-2.2,0-4.4,0-6.7,0c0-3.7,0-7.5,0-11.2c2.2,0,4.4,0,6.6,0c0,0.2,0,0.4,0,0.7
			C133,20.9,131.3,20.9,129.6,20.9z"/>
		<path d="M62.4,20.2c0,0.2,0,0.4,0,0.7c-1.2,0-2.4,0-3.6,0c0,3.5,0,7.1,0,10.6c-0.5,0-1,0-1.5,0c0-3.5,0-7,0-10.6
			c-1.2,0-2.4,0-3.6,0c0-0.2,0-0.5,0-0.7C56.5,20.2,59.4,20.2,62.4,20.2z"/>
		<path d="M87.6,20.2c0,3.5,0,7,0,10.5c1.7,0,3.4,0,5.1,0c0,0.3,0,0.5,0,0.7c-2.2,0-4.4,0-6.6,0c0-3.8,0-7.5,0-11.3
			C86.6,20.2,87.1,20.2,87.6,20.2z"/>
		<path d="M63.9,18.8c0-0.2,0-0.4,0-0.6c2.2,0,4.4,0,6.6,0c0,0.2,0,0.4,0,0.6C68.3,18.8,66.1,18.8,63.9,18.8z"/>
	</g>
</g>
</svg>
